{"glyphs":{"0":{"ha":1153,"x_min":81,"x_max":1047,"o":"m 578 713 q 549 690 564 704 q 535 676 542 683 q 472 503 490 596 q 474 364 457 415 l 475 364 q 500 372 486 364 q 572 467 542 396 q 603 625 607 544 q 578 713 600 686 m 476 1139 q 529 1156 503 1150 q 743 1138 640 1182 q 900 1017 831 1100 q 1047 654 1017 874 q 1001 250 1079 429 q 871 69 954 142 q 675 -28 788 -3 q 397 -18 521 -64 q 219 55 294 -3 q 104 204 144 113 q 81 581 36 361 q 214 904 118 756 q 383 1113 282 1038 q 476 1139 425 1143 z "},"1":{"ha":894,"x_min":124,"x_max":794,"o":"m 160 989 q 236 1054 192 1022 q 307 1101 263 1074 q 316 1106 308 1101 q 325 1113 324 1111 q 381 1149 363 1136 q 440 1203 401 1185 q 499 1219 468 1218 q 647 1211 578 1233 q 760 1135 719 1190 q 794 978 810 1067 q 776 929 790 951 q 768 504 769 749 q 768 253 768 419 q 768 124 768 174 q 738 36 768 75 q 725 22 732 29 q 660 -28 692 -11 q 549 -46 606 -56 q 499 -31 522 -42 q 407 13 444 -28 q 369 108 369 53 q 363 435 369 217 q 357 707 357 615 q 357 792 356 751 q 263 756 317 756 q 169 792 210 756 q 124 888 126 831 q 160 989 122 946 z "},"2":{"ha":1111,"x_min":24,"x_max":1010,"o":"m 200 1025 q 293 1082 242 1057 q 543 1144 408 1140 q 799 1088 690 1150 q 958 843 940 1006 q 942 656 968 751 q 874 494 919 576 q 783 358 838 429 q 692 246 747 311 q 675 226 685 236 q 838 253 769 233 q 943 241 893 269 q 1009 158 993 213 q 997 52 1025 103 q 914 -14 969 1 q 571 -56 772 -54 q 249 -39 442 -56 q 181 -12 211 -35 q 114 38 140 1 q 88 118 88 74 q 119 239 88 176 q 176 326 139 279 q 244 407 203 361 l 315 486 q 413 603 381 558 q 440 643 429 625 q 433 640 438 643 q 351 606 379 615 q 249 581 293 585 q 178 585 211 578 q 100 624 135 596 q 24 768 36 674 q 42 878 15 824 q 85 940 57 910 q 164 1007 115 974 q 200 1025 181 1018 z "},"3":{"ha":1117,"x_min":75,"x_max":1007,"o":"m 868 826 q 824 800 832 806 q 818 796 821 797 q 781 763 807 788 q 779 761 779 763 q 940 642 871 726 q 1007 326 1056 506 q 974 235 994 281 q 925 150 953 192 q 799 12 872 71 q 640 -75 725 -47 q 438 -92 540 -110 q 250 -3 335 -74 q 167 93 200 39 q 119 236 122 164 q 118 243 118 239 q 118 268 118 257 q 119 292 118 281 q 131 335 122 315 q 165 388 142 365 q 278 425 213 432 q 319 426 299 428 q 444 365 388 421 q 485 308 468 343 q 500 271 492 293 q 503 260 500 268 q 507 250 507 251 q 510 243 508 246 q 538 247 521 242 q 583 269 561 254 q 614 299 606 285 q 632 378 635 332 q 606 463 629 425 q 576 493 593 483 q 533 475 557 486 q 500 463 515 467 q 451 451 474 453 q 393 460 421 450 q 308 539 333 481 q 299 592 299 564 q 303 628 299 610 q 317 665 307 647 q 364 724 332 701 q 385 744 368 728 q 388 747 386 746 q 410 769 403 763 q 415 778 413 774 l 454 821 q 229 810 304 818 q 127 840 172 804 q 76 933 82 876 q 106 1035 69 990 q 200 1086 142 1081 q 522 1100 304 1097 q 811 1103 628 1103 l 832 1103 q 931 1062 890 1103 q 971 964 971 1021 q 945 882 971 918 q 878 832 919 846 q 868 826 872 829 z "},"4":{"ha":1046,"x_min":78,"x_max":946,"o":"m 532 1136 q 592 1190 554 1174 q 650 1207 619 1206 q 799 1199 729 1221 q 910 1122 869 1178 q 946 965 961 1054 q 928 917 942 939 q 919 490 921 736 q 919 388 919 440 q 919 319 928 353 q 919 240 919 286 q 919 112 919 161 q 889 24 919 63 q 875 8 882 15 q 811 -40 843 -24 q 700 -58 757 -68 q 650 -43 674 -54 q 558 0 596 -40 q 519 96 519 40 q 519 188 519 142 q 463 190 497 188 q 415 193 425 193 l 413 193 l 399 193 q 314 194 347 193 q 221 206 258 197 q 161 226 188 213 q 118 260 136 240 q 79 339 86 294 q 78 383 76 369 q 93 425 81 397 q 107 456 97 438 q 149 535 122 486 q 275 753 199 624 q 407 974 349 878 q 499 1110 478 1086 q 532 1136 514 1126 m 432 471 q 481 468 444 469 q 513 465 499 467 q 510 604 510 553 q 432 471 467 532 z "},"5":{"ha":1175,"x_min":121,"x_max":1076,"o":"m 363 1111 q 579 1114 444 1106 q 647 1117 626 1117 q 968 1096 822 1125 q 1056 1037 1024 1085 q 1076 932 1088 989 q 1017 843 1065 875 q 913 824 969 811 q 665 840 803 844 q 661 822 664 832 q 657 808 658 813 q 656 801 656 803 q 639 739 646 765 q 638 733 639 736 q 857 650 753 721 q 980 523 938 596 q 1021 367 1022 450 q 900 104 1019 225 q 654 -43 799 1 q 351 -47 493 -93 q 224 26 294 -29 q 169 78 192 53 q 142 115 153 97 q 128 147 133 131 q 121 186 122 167 q 142 283 111 239 q 189 343 164 319 q 228 374 207 361 q 297 397 261 393 q 390 381 346 404 q 451 326 426 363 q 461 311 457 319 q 492 350 490 326 q 489 358 492 353 q 467 393 483 374 q 429 435 451 413 q 407 432 419 433 q 296 435 347 426 q 203 465 247 443 q 137 535 157 489 q 131 629 117 581 q 131 650 131 638 q 135 690 132 665 q 143 760 139 733 q 144 771 143 764 q 146 776 144 774 q 146 781 146 779 q 146 783 146 782 q 164 885 157 849 q 196 997 176 946 q 254 1067 213 1042 q 363 1111 299 1114 z "},"6":{"ha":1144,"x_min":128,"x_max":1031,"o":"m 646 490 q 589 453 614 476 q 553 397 554 421 q 553 392 551 393 q 575 369 558 382 q 636 364 604 350 q 700 429 678 383 q 708 461 708 447 q 707 469 708 467 q 703 472 706 471 q 690 481 699 476 q 646 490 672 488 m 940 1079 q 949 1049 944 1060 q 950 1039 949 1046 l 953 1033 q 958 1001 957 1017 q 960 981 960 990 q 919 882 960 922 q 821 842 879 842 q 738 808 788 842 l 739 808 l 742 807 q 747 806 746 806 q 908 738 840 790 q 1013 607 976 686 q 1031 299 1076 468 q 861 35 985 133 q 529 -47 715 -83 q 425 -14 474 -36 q 385 -8 404 -14 q 240 75 300 17 q 149 218 179 133 q 128 532 99 353 q 240 853 154 697 q 446 1110 325 1010 q 538 1165 475 1133 q 656 1211 601 1196 q 729 1226 696 1224 q 831 1213 786 1231 q 931 1104 907 1182 q 940 1079 938 1092 z "},"7":{"ha":1190,"x_min":169,"x_max":1094,"o":"m 306 1085 q 324 1085 314 1085 q 506 1094 385 1088 q 731 1106 656 1104 q 865 1099 783 1107 q 958 1083 922 1093 q 1017 1060 992 1074 q 1060 1022 1042 1044 q 1094 929 1094 982 q 1083 868 1094 899 q 1065 829 1076 850 q 1029 774 1051 804 q 1014 756 1022 765 l 1011 753 q 1006 746 1010 750 q 999 737 1003 742 q 993 728 996 732 q 989 724 990 725 q 982 714 983 717 l 981 713 q 669 36 826 426 q 613 -31 653 -7 q 589 -51 601 -43 q 468 -90 533 -92 q 372 -69 422 -90 q 342 -54 358 -62 q 335 -50 340 -53 q 325 -44 329 -47 l 319 -42 q 308 -36 313 -39 q 235 56 250 -7 q 235 161 213 107 q 538 818 386 540 q 524 818 531 818 q 333 807 397 810 q 313 807 322 807 q 213 845 254 806 q 169 942 171 885 q 208 1042 168 1000 q 306 1085 247 1083 z "},"8":{"ha":1047,"x_min":288,"x_max":938,"o":"m 642 790 q 599 761 618 779 q 571 719 574 738 q 572 715 571 717 q 589 700 576 708 q 635 696 611 685 q 682 743 665 710 q 688 767 688 757 q 688 774 689 772 q 685 776 686 775 q 675 782 681 779 q 642 790 661 788 m 618 325 l 617 326 l 615 326 l 613 326 q 603 329 607 328 q 599 331 600 331 q 583 335 590 332 q 581 333 582 333 q 560 296 564 319 q 558 278 557 286 q 560 269 558 272 l 561 269 q 578 264 567 265 q 604 264 594 261 q 613 268 610 265 q 624 292 621 275 q 621 322 628 311 q 618 325 619 325 m 861 460 q 899 247 917 363 q 786 51 878 125 q 536 -11 682 -32 q 321 129 390 11 q 288 354 261 231 q 386 532 310 458 q 351 582 365 554 q 325 810 296 683 q 435 1004 351 928 q 658 1071 535 1094 q 707 1043 688 1065 q 715 1040 711 1042 q 719 1039 717 1040 l 722 1039 q 921 897 863 1014 q 938 675 971 797 q 843 514 911 581 q 861 460 857 489 z "},"9":{"ha":999,"x_min":115,"x_max":901,"o":"m 460 589 q 504 628 485 604 q 529 678 529 657 q 528 683 529 681 q 507 699 522 690 q 454 697 479 713 q 408 636 421 676 q 404 608 403 619 q 407 600 404 603 q 410 599 407 599 q 421 593 414 596 q 460 589 436 589 m 274 61 q 264 86 268 76 q 260 92 263 88 q 258 99 258 97 q 250 125 253 111 q 247 143 247 133 q 270 229 240 190 q 349 275 300 268 q 415 311 378 278 l 414 311 q 411 313 413 311 l 410 313 l 408 313 q 163 453 244 321 q 115 710 94 563 q 229 951 135 854 q 500 1056 340 1065 q 593 1039 549 1051 q 628 1038 610 1040 q 850 872 776 1013 q 901 610 907 764 q 842 326 897 468 q 694 88 786 185 q 622 31 672 64 q 529 -19 572 -1 q 468 -40 496 -35 q 381 -40 421 -50 q 285 40 314 -22 q 274 61 278 50 z "}," ":{"ha":417,"x_min":0,"x_max":0,"o":""},"!":{"ha":604,"x_min":135,"x_max":507,"o":"m 219 257 q 222 258 221 258 q 228 260 226 260 q 238 263 233 261 q 268 265 253 267 q 356 228 319 265 q 364 221 360 224 q 392 182 382 204 q 403 115 407 149 q 379 54 400 81 q 353 28 368 39 q 335 17 344 22 q 313 10 324 13 q 275 3 296 4 q 258 3 267 3 q 246 3 253 3 q 214 11 229 6 q 171 39 190 21 q 144 82 153 57 q 135 106 138 93 q 146 200 121 156 q 219 257 171 244 m 408 307 q 363 289 383 296 q 292 281 325 278 q 203 318 240 286 q 158 381 171 343 q 151 403 154 392 q 167 506 135 458 q 182 632 179 578 q 165 789 188 729 q 158 846 154 817 q 164 893 157 869 q 219 975 181 944 q 310 1010 258 1006 q 372 1006 339 1013 q 411 994 389 1001 q 481 938 457 979 q 494 851 504 897 q 503 806 500 831 q 507 688 510 754 q 504 646 506 667 q 503 553 508 603 q 483 442 497 506 q 478 417 482 431 q 478 413 478 415 q 457 351 475 379 q 408 307 439 322 z "},"\"":{"ha":668,"x_min":38,"x_max":568,"o":"m 299 946 q 292 924 296 938 q 290 918 292 921 q 290 915 290 917 q 289 913 289 914 q 286 903 288 907 q 282 883 283 892 q 308 818 304 856 q 293 747 311 781 q 219 689 268 703 q 126 699 171 675 q 39 815 58 738 q 38 914 28 860 q 50 969 40 939 q 53 982 51 975 q 56 992 56 989 q 58 1001 58 999 q 114 1078 71 1051 q 206 1094 157 1106 q 283 1039 256 1082 q 299 946 310 996 m 564 965 q 553 903 553 926 q 553 888 551 893 q 554 882 554 885 q 567 790 581 839 q 510 715 554 740 q 417 702 467 689 q 342 758 368 715 q 307 914 303 826 q 328 1032 308 965 q 386 1106 342 1081 q 480 1117 431 1131 q 553 1058 529 1103 q 564 965 578 1014 z "},"#":{"ha":1107,"x_min":-35,"x_max":1010,"o":"m 465 489 q 432 492 447 490 q 422 428 428 464 q 436 428 428 428 q 458 429 447 428 q 464 485 461 457 q 465 489 464 486 m 826 439 q 821 440 824 440 q 801 442 807 442 q 781 446 790 443 q 767 450 774 447 q 760 453 763 451 q 742 454 751 453 l 740 454 l 740 453 q 736 413 738 433 q 739 411 738 413 q 757 408 750 410 q 815 401 801 399 q 919 375 872 410 q 973 283 965 340 q 947 181 981 226 q 856 126 913 135 q 771 125 817 121 q 718 132 747 128 q 718 121 718 126 l 718 119 q 678 22 718 63 q 581 -19 638 -19 l 579 -19 q 510 0 542 -19 q 458 51 478 19 q 456 56 458 53 q 436 150 429 99 q 403 150 415 150 q 383 150 393 150 q 381 132 382 140 q 370 53 388 92 q 317 -7 353 15 q 279 -26 297 -19 q 254 -32 267 -29 q 210 -31 232 -35 q 147 -1 175 -24 q 106 53 119 21 q 96 97 97 75 q 96 124 94 111 q 100 149 97 136 q 103 156 101 151 q 104 167 104 161 q 71 174 88 169 q -16 235 15 186 q -35 339 -47 283 q 26 426 -22 394 q 131 444 75 457 q 144 442 138 443 q 153 501 149 475 q 119 497 135 500 q 17 527 63 492 q -35 619 -28 563 q -6 722 -42 676 q 86 774 29 767 q 201 781 139 781 q 261 975 226 885 q 333 1052 281 1029 q 440 1055 386 1075 q 517 982 493 1035 q 519 875 540 929 q 485 765 500 824 q 508 763 496 764 q 558 950 531 868 q 630 1029 578 1004 q 736 1035 682 1054 q 815 965 790 1017 q 821 858 840 913 q 785 729 801 803 q 869 722 846 722 l 871 722 q 969 682 929 722 q 1010 585 1010 642 l 1010 583 q 987 506 1010 540 q 925 456 964 471 q 917 451 921 453 q 826 439 874 429 z "},"$":{"ha":940,"x_min":164,"x_max":843,"o":"m 358 67 q 278 115 315 86 q 164 278 186 189 q 183 400 147 347 q 294 460 219 453 q 375 426 343 464 q 379 424 376 425 q 429 379 401 407 q 436 372 431 378 l 442 367 q 451 357 449 361 q 457 351 456 354 q 464 358 461 354 q 486 383 476 369 q 490 393 489 389 l 490 394 q 483 400 488 396 q 401 440 465 414 l 400 442 q 335 469 357 460 q 267 514 294 490 q 203 703 179 589 q 339 914 228 824 q 338 1010 338 947 q 378 1108 338 1068 q 476 1149 418 1149 q 574 1108 533 1149 q 615 1010 615 1068 l 615 1008 q 682 992 650 1006 q 821 838 782 951 q 835 814 829 826 q 843 778 842 796 q 835 724 846 749 q 775 650 813 674 q 675 633 729 621 q 615 660 647 640 q 594 674 606 665 q 584 681 592 675 q 576 688 576 686 q 549 704 558 699 q 539 708 543 707 q 536 710 538 710 q 528 703 532 707 q 511 681 518 693 q 551 661 525 672 q 565 655 553 660 q 590 644 576 650 q 608 636 603 639 q 686 597 654 617 q 763 535 732 569 q 819 306 844 442 q 797 225 813 264 q 744 138 776 169 q 638 61 694 88 q 635 13 638 35 q 578 -78 625 -44 q 474 -103 531 -111 q 386 -49 419 -93 q 360 51 353 -4 q 359 56 360 53 q 358 67 358 60 z "},"%":{"ha":1025,"x_min":64,"x_max":922,"o":"m 576 353 q 581 363 579 357 q 626 425 596 400 q 706 460 661 453 q 772 454 739 464 q 846 413 811 443 q 890 363 871 390 q 922 296 913 331 q 919 189 938 240 q 828 88 896 118 q 722 72 781 68 q 597 129 646 76 q 547 254 547 182 q 576 353 547 308 m 149 979 q 163 989 156 985 q 279 1010 215 1019 q 343 985 314 1004 q 408 900 392 954 q 399 788 425 843 q 354 729 383 757 q 339 717 346 722 q 308 697 324 706 q 207 681 260 672 q 158 696 181 685 q 103 736 125 710 q 72 872 53 796 q 108 944 82 911 q 149 979 126 964 m 81 242 q 196 406 108 286 q 368 639 243 471 q 369 640 369 639 q 565 906 510 828 q 628 994 607 963 q 640 1015 636 1007 q 692 1080 657 1056 q 771 1104 728 1104 q 793 1101 782 1104 q 876 1054 843 1093 q 910 965 910 1015 q 907 942 910 953 l 907 940 l 907 938 q 906 931 906 933 q 904 926 906 929 q 904 921 904 922 q 903 918 904 919 q 903 916 903 917 q 900 906 903 915 q 899 899 900 903 q 890 879 896 892 l 889 876 l 885 871 l 881 864 l 874 854 l 863 843 q 857 839 860 840 q 790 743 833 803 q 592 474 733 664 l 592 472 q 419 242 467 306 q 318 97 339 131 q 232 35 288 49 q 127 51 176 21 q 65 137 78 81 q 81 242 51 193 z "},"&":{"ha":1201,"x_min":11,"x_max":1101,"o":"m 385 206 q 479 246 421 211 q 486 250 483 247 q 456 288 469 269 q 385 206 404 239 m 943 282 q 985 258 967 265 q 997 253 992 256 q 1043 233 1022 247 q 1101 144 1090 201 q 1081 40 1113 88 q 943 -47 1031 -35 q 815 -29 882 -57 q 731 17 775 -12 q 618 -82 681 -46 q 464 -140 556 -119 q 146 -79 276 -183 q 11 172 33 11 q 54 447 -7 317 q 242 643 118 581 q 226 688 233 665 q 235 879 201 788 q 357 1040 268 971 q 550 1119 444 1108 q 744 1081 656 1131 q 875 921 840 1025 q 868 699 910 817 q 811 601 850 651 q 740 528 783 568 q 711 501 726 515 l 724 492 q 740 476 733 482 q 743 474 742 475 q 751 483 749 481 q 758 490 754 488 q 760 493 758 492 q 783 539 768 518 q 877 590 819 583 q 979 560 935 596 q 1032 467 1024 525 q 1028 410 1035 439 q 1007 363 1021 386 q 972 314 994 342 q 963 303 968 308 q 943 282 956 294 m 521 704 q 551 731 538 718 q 594 776 579 757 q 604 790 601 785 q 606 792 606 790 l 606 792 q 613 822 613 808 q 611 833 613 829 q 606 839 610 836 q 578 843 596 844 q 528 821 553 840 q 494 783 501 800 q 496 758 492 774 q 521 704 501 735 z "},"'":{"ha":413,"x_min":33,"x_max":317,"o":"m 311 986 q 313 919 311 964 q 314 918 313 918 q 317 835 317 864 q 276 736 317 776 q 177 696 235 696 q 79 736 119 696 q 39 835 39 776 q 36 901 39 856 l 36 903 q 33 986 33 957 q 74 1084 33 1043 q 172 1125 114 1125 q 270 1084 229 1125 q 311 986 311 1043 z "},"(":{"ha":838,"x_min":133,"x_max":738,"o":"m 675 878 q 537 735 592 826 q 464 531 482 644 q 469 310 446 418 q 549 124 492 203 l 558 111 q 578 83 568 97 q 592 64 588 69 q 628 22 613 38 q 639 13 633 17 q 642 11 640 11 q 717 -62 694 -10 q 718 -169 739 -115 q 644 -245 697 -222 q 538 -246 590 -268 q 535 -246 536 -246 q 372 -158 436 -236 q 361 -146 367 -153 l 358 -142 q 146 122 211 -26 q 133 672 29 394 q 478 1103 229 924 q 558 1128 514 1128 q 649 1127 604 1143 q 719 1069 694 1111 q 737 964 750 1019 q 675 878 724 908 z "},")":{"ha":801,"x_min":51,"x_max":669,"o":"m 147 -29 q 276 119 226 26 q 338 324 326 211 q 321 540 349 435 q 233 721 293 646 q 223 733 232 721 q 203 758 214 744 q 189 775 193 771 q 151 815 167 801 q 139 825 144 821 q 136 826 138 826 q 58 895 83 844 q 51 999 33 946 q 120 1078 69 1053 q 225 1085 171 1104 q 228 1085 226 1085 q 393 1007 325 1079 q 403 994 399 1001 q 407 992 404 994 q 629 742 557 885 q 669 201 758 481 q 353 -239 589 -51 q 275 -269 318 -267 q 186 -272 232 -286 q 113 -219 140 -258 q 91 -117 81 -172 q 147 -29 101 -61 z "},"*":{"ha":968,"x_min":17,"x_max":869,"o":"m 346 160 q 343 175 344 167 q 340 183 342 176 l 339 189 q 313 301 321 263 q 281 264 297 285 q 189 213 246 219 q 86 240 132 206 q 33 333 40 275 q 63 435 26 390 q 174 561 117 506 q 53 672 108 613 q 17 772 14 714 q 62 868 19 829 q 162 905 104 907 q 258 860 219 903 q 325 796 289 826 q 325 850 325 821 q 338 986 328 900 l 339 996 q 339 1008 339 1006 q 391 1101 346 1065 q 493 1131 436 1138 q 586 1079 550 1124 q 615 978 622 1035 q 615 970 615 975 q 614 961 614 965 l 613 956 q 603 842 604 882 q 650 875 626 858 q 755 895 699 907 q 843 835 811 883 q 864 731 875 788 q 804 643 853 675 q 700 569 750 607 q 813 479 758 518 q 869 390 860 446 q 846 286 879 333 q 756 229 813 239 q 651 253 699 219 q 600 292 625 271 q 608 257 603 276 l 610 250 q 611 243 611 244 q 615 228 614 235 q 600 123 629 172 q 515 60 571 74 q 410 75 460 46 q 346 160 360 104 z "},"+":{"ha":1000,"x_min":6,"x_max":901,"o":"m 128 647 q 293 651 201 656 q 311 650 301 650 q 328 815 315 740 q 383 906 336 872 q 487 931 431 940 q 577 876 543 922 q 601 772 611 829 q 588 626 592 707 q 608 625 599 626 q 738 635 683 624 q 841 614 793 646 q 901 526 889 582 q 881 422 913 469 q 792 363 849 374 q 601 349 707 346 q 597 349 599 349 q 614 204 603 276 q 588 101 622 147 q 496 47 553 56 q 393 74 439 39 q 339 165 347 108 q 317 371 324 271 q 279 374 297 372 q 160 371 211 376 q 58 400 103 364 q 6 493 13 436 q 35 595 -1 550 q 128 647 71 640 z "},",":{"ha":575,"x_min":161,"x_max":443,"o":"m 414 308 q 443 -74 528 128 q 367 -149 419 -126 q 260 -148 314 -171 q 185 -72 207 -125 q 186 35 164 -19 q 179 158 215 101 q 161 263 149 207 q 222 351 174 319 q 326 369 269 382 q 414 308 382 357 z "},"-":{"ha":664,"x_min":-14,"x_max":565,"o":"m 111 546 q 120 547 113 546 q 129 547 128 547 q 149 550 140 549 q 272 560 222 557 q 456 549 382 564 q 544 490 513 538 q 565 385 576 442 q 506 297 553 329 q 401 276 458 265 q 283 282 360 285 q 175 274 242 279 q 157 271 168 272 q 148 270 156 271 q 139 269 140 269 q 38 301 82 264 q -13 394 -7 338 q 17 496 -19 451 q 111 546 54 540 z "},".":{"ha":531,"x_min":117,"x_max":433,"o":"m 433 201 q 433 169 435 186 q 407 94 431 128 q 347 43 383 61 q 336 39 342 40 q 249 22 294 15 q 179 50 210 26 q 153 78 164 63 q 126 132 136 100 q 117 206 113 169 q 143 274 121 243 q 175 306 157 293 q 261 339 213 338 q 275 340 268 340 q 313 338 293 342 q 363 318 339 333 q 433 201 428 278 z "},"/":{"ha":575,"x_min":-60,"x_max":476,"o":"m 451 935 q 383 774 424 896 q 307 497 347 661 q 215 56 247 246 q 168 -28 207 4 q 79 -61 129 -61 q 57 -60 68 -61 q -22 -17 10 -51 q -60 63 -54 17 q -60 67 -60 64 q -57 121 -64 94 q -54 135 -56 125 q -51 151 -51 147 q -49 161 -50 157 q -46 172 -47 167 q 38 561 -10 368 q 119 860 79 738 q 226 1097 174 1022 q 317 1153 260 1143 q 420 1129 374 1163 q 476 1039 467 1096 q 451 935 486 982 z "},":":{"ha":563,"x_min":117,"x_max":465,"o":"m 124 714 q 169 811 132 768 q 222 853 192 838 q 315 871 267 876 q 411 824 371 864 q 456 754 440 796 q 438 598 485 675 q 310 508 392 521 q 258 508 283 504 q 192 531 222 513 q 118 651 125 571 q 124 714 115 682 m 192 299 q 250 328 218 318 q 317 338 283 339 q 418 293 376 333 q 465 190 460 251 q 457 114 468 154 q 410 29 443 64 q 324 -19 374 -10 q 239 -14 281 -28 q 144 58 181 6 q 117 117 125 85 q 118 203 106 161 q 174 286 132 253 q 192 299 182 292 z "},";":{"ha":554,"x_min":111,"x_max":457,"o":"m 131 817 q 193 885 153 860 q 318 906 250 919 q 405 857 369 893 q 450 769 440 821 q 418 632 463 696 q 342 571 390 589 q 263 561 304 557 q 221 572 240 564 q 132 638 163 586 q 122 660 126 649 q 111 688 115 674 q 117 789 97 739 q 131 817 122 803 m 414 304 q 457 143 454 217 q 435 26 460 79 q 338 -76 404 -40 q 231 -88 286 -104 q 149 -21 176 -72 q 133 69 125 22 q 176 149 142 117 q 161 189 172 165 q 158 294 138 240 q 230 373 178 349 q 336 377 282 397 q 414 304 390 357 z "},"<":{"ha":924,"x_min":29,"x_max":817,"o":"m 726 593 q 576 526 657 569 q 493 479 539 506 q 743 379 639 424 q 817 303 796 357 q 815 197 838 250 q 740 123 793 144 q 633 125 686 101 q 294 257 518 174 q 172 303 265 268 l 171 304 l 169 304 l 168 304 q 149 310 157 307 q 103 329 121 318 q 72 352 85 339 q 49 382 58 365 q 29 439 32 408 q 49 526 24 486 q 69 554 57 542 q 92 572 79 564 q 114 586 101 579 q 156 608 131 596 q 163 611 160 610 q 200 629 176 618 q 213 635 211 633 q 269 668 225 643 q 281 675 278 674 q 446 771 386 739 q 633 856 546 824 q 740 849 688 874 q 810 771 792 825 q 805 665 829 717 q 726 593 781 613 z "},"=":{"ha":982,"x_min":47,"x_max":875,"o":"m 176 771 q 210 773 185 771 q 262 777 236 775 q 289 779 288 779 q 457 790 386 788 q 632 788 557 793 q 799 754 735 781 q 874 678 851 732 q 874 572 896 625 q 799 497 853 519 q 693 497 746 475 q 611 511 669 507 q 467 513 551 515 q 310 503 401 510 l 283 500 q 231 497 258 499 q 196 493 204 494 q 94 528 138 490 q 47 623 51 565 q 81 724 43 681 q 176 771 118 767 m 240 475 q 485 468 338 468 q 588 469 519 468 q 717 469 674 469 q 815 429 775 469 q 856 331 856 389 q 815 233 856 274 q 717 192 775 192 q 590 192 675 192 q 485 190 521 190 q 222 197 328 190 q 126 244 164 201 q 92 345 89 288 q 140 440 96 403 q 240 475 183 478 z "},">":{"ha":935,"x_min":117,"x_max":838,"o":"m 133 713 q 129 741 133 713 q 160 815 125 769 q 251 869 194 861 q 351 843 307 876 q 354 842 353 843 q 368 833 360 839 q 417 804 381 825 q 557 718 507 751 q 600 692 581 704 q 735 597 686 636 q 792 546 771 569 q 819 504 808 525 q 833 469 829 488 q 838 414 840 442 q 823 358 833 376 q 786 319 813 340 q 771 308 779 314 q 749 296 761 303 q 693 265 729 285 q 621 228 667 251 q 579 206 614 224 q 538 185 544 188 q 533 182 536 183 q 400 111 446 136 q 354 86 372 96 q 340 78 346 81 q 336 75 338 76 q 234 50 290 42 q 143 104 178 58 q 117 207 108 150 q 171 299 125 264 q 404 428 207 325 q 410 431 407 429 q 456 454 417 435 q 450 458 453 456 q 410 483 431 469 q 275 565 361 514 q 186 621 200 610 q 133 713 140 656 z "},"?":{"ha":894,"x_min":-12,"x_max":778,"o":"m 247 14 q 236 25 242 18 q 221 47 228 36 q 204 97 208 71 q 219 178 200 140 q 275 236 239 215 q 300 247 288 243 q 339 264 318 258 q 421 261 381 274 q 478 225 453 250 q 503 190 493 210 q 504 188 504 189 q 511 178 508 182 q 528 143 522 161 q 532 68 540 106 q 478 -15 521 17 q 419 -40 451 -33 q 385 -43 401 -43 q 382 -43 383 -43 q 303 -31 340 -47 q 247 14 269 -15 m -6 631 q -12 783 -28 696 q 36 921 1 856 q 143 1043 79 1003 q 185 1065 164 1057 q 389 1143 281 1128 q 594 1121 497 1158 q 771 951 719 1071 q 778 678 822 831 q 711 542 757 606 q 632 453 683 506 q 626 447 631 453 q 619 439 621 442 q 574 390 588 408 q 538 343 561 363 q 479 307 510 319 q 393 294 438 289 q 326 315 360 297 q 318 318 322 317 q 293 332 306 324 q 257 367 272 346 q 228 447 229 401 q 253 531 226 492 q 276 557 263 546 q 376 739 342 660 q 400 808 393 778 q 339 772 368 796 q 296 726 311 750 q 286 699 286 710 q 242 596 286 638 q 171 542 215 557 q 64 549 115 524 q -6 631 13 575 z "},"@":{"ha":1221,"x_min":-158,"x_max":1124,"o":"m 507 522 q 504 525 506 524 q 489 549 497 539 q 461 497 474 528 q 446 381 432 426 l 446 379 q 453 378 450 378 q 461 389 457 382 q 489 471 482 422 q 507 522 493 499 m 822 440 q 833 456 828 446 q 847 515 844 479 q 799 708 853 611 q 649 857 742 814 q 394 860 539 907 q 185 697 268 818 q 119 454 125 611 q 228 136 113 246 q 564 26 343 26 q 685 35 643 26 q 756 67 729 44 q 856 100 799 104 q 951 52 914 96 q 985 -49 989 8 q 936 -144 981 -107 q 742 -237 856 -214 q 564 -251 671 -251 q 176 -165 342 -251 q -78 84 10 -79 q -158 464 -165 247 q -131 658 -154 569 q -44 856 -103 769 q 308 1124 92 1053 q 764 1108 556 1204 q 1043 842 942 1028 q 1124 500 1135 674 q 1082 332 1118 406 q 957 197 1038 243 q 785 157 875 150 q 665 199 717 163 q 614 151 642 171 q 472 100 550 104 q 288 150 365 96 q 179 300 210 204 q 204 603 138 440 q 281 732 233 676 q 415 825 340 801 q 606 808 513 858 q 743 667 685 767 q 750 653 747 660 q 793 561 789 615 q 822 440 796 501 z "},"A":{"ha":1386,"x_min":-79,"x_max":1289,"o":"m 789 404 q 676 696 721 565 q 563 424 624 583 q 560 417 561 421 q 603 417 578 417 q 725 411 683 414 q 789 404 758 408 m -79 86 q 132 688 -15 339 q 350 1136 260 989 q 418 1219 367 1193 q 494 1243 451 1238 q 561 1247 525 1249 q 699 1228 632 1247 q 840 1150 789 1203 q 889 1062 876 1111 q 886 963 901 1013 q 933 801 896 910 q 1051 496 979 668 q 1183 208 1121 333 q 1231 115 1210 151 q 1283 31 1274 83 q 1285 21 1283 26 q 1289 -14 1289 4 q 1246 -114 1289 -74 q 1150 -153 1206 -153 q 1050 -111 1092 -153 q 1021 -79 1031 -92 q 1008 -65 1014 -71 q 999 -50 1004 -57 q 992 -36 994 -43 q 983 -11 986 -24 q 946 58 967 18 q 940 63 943 61 q 799 121 875 104 q 704 133 757 129 q 596 139 668 136 q 493 142 528 140 q 463 144 476 143 q 444 93 453 118 q 410 -26 422 21 q 400 -62 403 -49 l 399 -68 q 390 -110 397 -89 q 325 -203 379 -171 q 167 -233 249 -249 q 43 -168 99 -221 q -39 -50 -6 -122 q -78 13 -67 -24 q -79 86 -89 49 z "},"B":{"ha":1293,"x_min":17,"x_max":1196,"o":"m 818 454 q 689 415 757 431 q 543 372 619 394 q 543 171 540 267 q 606 176 569 169 q 708 203 649 185 q 746 215 724 208 l 761 221 q 781 228 776 226 q 889 297 853 251 q 918 365 917 329 q 901 418 919 396 q 847 449 883 440 q 842 449 846 449 q 835 451 839 450 q 826 453 831 451 q 818 454 821 454 m 889 850 q 876 854 883 853 q 764 860 835 867 q 588 821 686 853 q 564 676 574 754 q 618 685 592 679 q 629 689 624 686 q 661 699 643 693 q 674 703 663 699 q 689 707 686 707 q 733 721 718 717 q 742 724 738 722 q 788 747 767 735 q 868 814 839 778 q 889 850 885 833 m 17 -12 q 38 471 17 158 q 65 769 50 656 q 83 875 74 833 q 121 989 75 940 q 267 1115 197 1069 q 368 1169 318 1150 q 493 1194 431 1194 l 494 1194 l 496 1194 l 497 1194 q 501 1196 499 1196 q 515 1196 508 1196 q 579 1181 550 1196 q 642 1122 619 1161 q 958 1119 829 1160 q 1124 1003 1068 1086 q 1164 810 1182 917 q 1079 633 1149 717 q 1124 583 1104 611 q 1196 353 1201 482 q 1104 121 1190 225 q 868 -36 1017 14 q 851 -42 865 -37 q 835 -47 836 -47 q 793 -61 811 -56 q 654 -97 715 -86 q 500 -104 568 -112 q 482 -124 492 -114 q 276 -197 386 -201 q 119 -146 196 -193 q 46 -97 75 -133 q 17 -12 17 -60 z "},"C":{"ha":1376,"x_min":-8,"x_max":1279,"o":"m 854 379 q 992 367 931 393 q 1096 257 1068 335 q 1104 131 1118 199 q 1063 28 1093 79 q 968 -37 1029 -26 q 956 -44 961 -42 q 711 -100 861 -104 q 463 -56 594 -96 q 232 43 333 -17 q 57 206 108 117 q -8 426 -3 311 q 36 647 -12 540 q 321 961 118 829 q 719 1107 511 1085 q 1125 1004 967 1133 q 1138 992 1132 999 q 1182 975 1161 988 q 1244 919 1221 951 q 1279 828 1275 878 q 1265 743 1282 785 q 1235 689 1254 715 q 1168 625 1208 656 q 1113 589 1142 606 q 1007 576 1063 561 q 922 640 951 590 q 913 664 917 653 q 761 683 847 704 q 567 565 649 658 q 507 428 497 486 q 528 390 510 408 q 631 338 560 358 q 751 314 696 318 q 760 313 756 313 q 854 379 792 367 z "},"D":{"ha":1310,"x_min":21,"x_max":1206,"o":"m 465 167 q 646 276 557 193 q 763 510 757 379 q 689 743 768 631 q 507 894 615 849 q 443 543 457 700 q 465 167 422 329 m 158 -56 q 154 -54 156 -54 q 150 -51 153 -53 q 142 -46 146 -49 q 94 -10 114 -29 q 46 61 63 21 q 35 133 31 96 q 21 578 13 372 q 82 1015 31 817 q 102 1092 81 1056 q 163 1147 124 1128 l 164 1147 q 226 1172 192 1168 q 371 1197 297 1194 q 389 1201 382 1200 q 501 1224 457 1218 q 636 1217 578 1232 q 1115 883 963 1129 q 1205 646 1183 774 q 1197 393 1226 518 q 1099 162 1171 268 q 922 -17 1028 56 q 365 -121 685 -178 q 361 -119 363 -121 q 158 -56 254 -111 z "},"E":{"ha":1119,"x_min":86,"x_max":1019,"o":"m 436 1192 q 440 1192 439 1192 q 449 1192 444 1192 q 461 1192 454 1192 q 700 1168 560 1188 q 849 1142 792 1156 q 917 1117 889 1131 q 960 1092 942 1106 q 1011 1018 996 1061 q 1003 913 1029 964 q 922 843 978 861 q 788 869 849 818 q 779 872 783 871 q 663 893 738 882 q 606 900 636 896 q 586 757 600 849 q 583 743 585 751 q 563 582 568 633 q 767 585 665 594 q 861 535 825 579 q 892 434 897 492 q 843 340 888 376 q 742 308 799 303 q 563 301 650 317 q 571 201 565 256 q 576 143 572 188 q 590 144 583 143 q 749 164 685 149 q 783 174 772 169 q 865 215 817 208 q 957 196 914 222 q 1019 109 1006 165 q 1001 4 1032 53 q 953 -49 983 -26 q 906 -76 932 -64 q 813 -107 867 -93 q 604 -133 724 -128 q 388 -129 488 -139 q 196 -76 261 -115 q 140 -12 157 -53 q 131 69 122 28 q 86 547 75 294 q 174 1021 97 800 q 194 1107 169 1067 q 264 1164 219 1147 q 374 1193 331 1189 q 414 1193 392 1194 q 432 1193 421 1193 l 436 1192 z "},"F":{"ha":1114,"x_min":86,"x_max":1011,"o":"m 436 1192 q 440 1192 439 1192 q 449 1192 444 1192 q 461 1192 454 1192 q 700 1168 560 1188 q 849 1142 792 1156 q 917 1117 889 1131 q 960 1092 942 1106 q 1011 1018 996 1061 q 1003 913 1029 964 q 922 843 978 861 q 788 869 849 818 q 779 872 783 871 q 663 893 738 882 q 606 900 636 896 q 586 757 600 849 q 583 743 585 751 q 563 582 568 633 q 767 585 665 594 q 861 535 825 579 q 892 434 897 492 q 843 340 888 376 q 742 308 799 303 q 563 301 650 317 q 571 201 565 256 q 576 140 572 188 q 601 53 604 101 q 565 -32 599 4 q 543 -53 556 -43 q 510 -78 529 -68 q 392 -110 457 -108 q 233 -71 324 -110 q 168 -12 190 -53 q 139 42 147 11 q 86 533 76 272 q 174 1021 96 793 q 194 1107 169 1067 q 264 1164 219 1147 q 374 1193 331 1189 q 414 1193 392 1194 q 432 1193 421 1193 l 436 1192 z "},"G":{"ha":1494,"x_min":3,"x_max":1390,"o":"m 769 628 q 965 585 838 618 q 1004 575 983 581 q 1044 564 1021 571 l 1064 558 q 1083 553 1076 556 q 1149 536 1125 542 q 1179 525 1165 532 q 1207 524 1193 525 q 1299 469 1264 515 q 1325 367 1333 424 q 1331 167 1311 271 q 1351 71 1336 128 q 1356 51 1351 67 q 1365 13 1360 35 q 1374 -21 1371 -8 q 1383 -37 1379 -29 q 1390 -143 1408 -89 q 1321 -224 1372 -197 q 1253 -250 1283 -242 q 1157 -251 1203 -261 q 1076 -215 1114 -243 q 1007 -150 1031 -196 q 964 -39 982 -100 l 956 -44 q 710 -96 860 -106 q 463 -44 593 -89 q 238 64 338 -1 q 68 226 118 140 q 3 445 8 332 q 46 664 -3 558 q 328 972 126 844 q 724 1110 517 1092 q 1125 1004 967 1133 q 1138 992 1132 999 q 1182 975 1161 988 q 1278 861 1256 931 q 1260 713 1303 785 q 1197 642 1238 675 q 1143 606 1174 624 q 1062 588 1104 585 q 986 618 1019 592 q 939 646 960 628 q 750 704 857 715 q 574 621 647 694 q 513 483 507 556 q 538 407 514 444 q 629 313 568 358 q 632 313 631 313 q 650 307 639 310 q 715 301 678 301 q 831 321 793 301 q 849 328 839 325 q 735 351 774 347 q 642 404 678 358 q 614 507 607 450 q 667 599 621 564 q 769 628 713 635 z "},"H":{"ha":1428,"x_min":11,"x_max":1329,"o":"m 1264 1004 q 1240 804 1247 931 q 1236 546 1232 678 q 1263 291 1243 401 q 1313 133 1283 181 q 1329 35 1339 88 q 1276 -49 1319 -17 q 1210 -107 1251 -85 q 1108 -136 1165 -132 q 1013 -125 1060 -139 q 936 -86 968 -112 q 878 -33 899 -68 q 794 214 824 57 q 776 215 786 214 q 613 207 719 217 q 590 204 606 206 q 518 199 544 200 q 550 117 533 144 q 569 35 572 78 q 539 -42 567 -8 q 458 -122 511 -93 q 356 -151 413 -147 q 261 -142 307 -154 q 164 -86 203 -125 q 147 -65 154 -76 q 125 -37 135 -53 q 42 213 71 53 q 11 507 17 343 q 14 802 4 657 q 44 1040 24 947 q 81 1106 54 1078 q 144 1143 107 1133 q 242 1179 189 1167 q 336 1190 292 1193 q 400 1178 371 1189 q 474 1125 444 1161 q 506 1028 508 1083 q 501 988 507 1008 q 477 788 485 914 q 475 529 469 661 q 478 474 476 501 q 565 481 506 475 q 588 483 579 482 q 764 493 699 493 q 763 511 764 501 q 766 806 757 661 q 797 1044 775 951 q 858 1131 810 1100 q 990 1189 908 1168 q 1086 1200 1042 1203 q 1150 1186 1121 1199 q 1210 1149 1183 1174 q 1258 1085 1243 1125 q 1264 1004 1274 1046 z "},"I":{"ha":667,"x_min":11,"x_max":569,"o":"m 501 988 q 477 788 485 914 q 475 529 469 661 q 501 274 481 385 q 550 117 521 164 q 569 35 572 78 q 539 -42 567 -8 q 458 -122 511 -93 q 356 -151 413 -147 q 261 -142 307 -154 q 164 -86 203 -125 q 147 -65 154 -76 q 125 -37 135 -53 q 42 213 71 53 q 11 507 17 343 q 14 802 4 657 q 44 1040 24 947 q 81 1106 54 1078 q 144 1143 107 1133 q 242 1179 189 1167 q 336 1190 292 1193 q 400 1178 371 1189 q 474 1125 444 1161 q 506 1028 508 1083 q 501 988 507 1008 z "},"J":{"ha":1089,"x_min":1,"x_max":990,"o":"m 961 1046 q 979 881 971 971 q 990 513 994 683 q 943 149 986 288 q 865 -6 914 54 q 803 -61 838 -39 q 788 -72 796 -67 q 700 -118 750 -99 q 511 -161 615 -151 q 319 -150 406 -169 q 225 -115 265 -137 q 156 -57 183 -90 q 46 53 89 -12 q 1 378 -47 196 q 65 463 15 433 q 171 477 115 492 q 255 413 226 463 q 269 307 283 363 q 279 204 253 244 q 350 158 303 169 q 443 175 400 149 q 524 299 499 210 q 549 471 544 374 q 546 667 553 550 q 539 765 544 700 q 528 999 528 924 q 539 1106 521 1057 q 631 1210 565 1175 q 724 1235 671 1229 q 789 1238 747 1238 l 792 1238 q 829 1239 810 1240 q 926 1202 885 1240 q 972 1107 968 1164 q 961 1046 974 1075 z "},"K":{"ha":1335,"x_min":11,"x_max":1228,"o":"m 932 1219 q 1013 1218 975 1226 q 1108 1163 1071 1206 q 1147 1099 1133 1135 q 1151 1093 1149 1096 q 1179 990 1186 1047 q 1126 899 1172 933 q 992 793 1022 817 q 754 606 851 683 q 757 601 756 603 q 900 431 828 508 q 1044 294 986 336 q 1065 282 1056 286 q 1147 272 1107 289 q 1210 217 1188 254 q 1228 168 1224 194 q 1224 56 1250 110 q 1206 25 1215 39 q 1132 -33 1176 -15 q 1096 -43 1115 -40 q 1076 -46 1088 -44 l 1074 -46 l 1071 -46 q 936 -50 1008 -68 q 815 4 879 -36 q 611 178 724 63 q 496 304 554 236 q 501 274 499 289 q 550 117 521 164 q 569 35 572 78 q 539 -42 567 -8 q 458 -122 511 -93 q 356 -151 413 -147 q 261 -142 307 -154 q 164 -86 203 -125 q 147 -65 154 -76 q 125 -37 135 -53 q 42 213 71 53 q 11 507 17 343 q 14 802 4 657 q 44 1040 24 947 q 81 1106 54 1078 q 144 1143 107 1133 q 242 1179 189 1167 q 336 1190 292 1193 q 400 1178 371 1189 q 474 1125 444 1161 q 506 1028 508 1083 q 501 988 507 1008 q 486 888 493 947 q 583 967 532 926 q 786 1128 693 1057 q 788 1129 786 1129 q 842 1169 793 1133 q 843 1171 842 1171 q 932 1219 878 1213 z "},"L":{"ha":1351,"x_min":11,"x_max":1253,"o":"m 1035 414 q 1150 375 1100 404 q 1222 310 1196 349 q 1253 178 1264 250 q 1242 138 1250 157 q 1189 54 1231 86 q 761 -129 1017 -75 q 315 -160 546 -174 q 249 -137 279 -157 q 164 -86 199 -119 q 147 -65 154 -76 q 125 -37 135 -53 q 42 213 71 53 q 11 507 17 343 q 14 802 4 657 q 44 1040 24 947 q 81 1106 54 1078 q 144 1143 107 1133 q 242 1179 189 1167 q 336 1190 292 1193 q 400 1178 371 1189 q 474 1125 444 1161 q 506 1028 508 1083 q 501 988 507 1008 q 477 788 485 914 q 475 529 469 661 q 497 297 481 400 q 682 324 601 307 q 928 404 821 351 q 1019 415 972 426 q 1035 414 1028 415 z "},"M":{"ha":1568,"x_min":11,"x_max":1465,"o":"m 732 407 q 626 418 676 390 q 560 500 576 446 q 558 503 560 501 q 553 514 557 507 q 528 554 543 531 q 472 631 507 585 q 475 529 472 579 q 501 274 481 385 q 550 117 521 164 q 569 35 572 78 q 539 -42 567 -8 q 458 -122 511 -93 q 356 -151 413 -147 q 261 -142 307 -154 q 164 -86 203 -125 q 147 -65 154 -76 q 125 -37 135 -53 q 42 213 71 53 q 11 507 17 343 q 14 802 4 657 q 44 1040 24 947 q 81 1106 54 1078 q 144 1143 107 1133 q 242 1179 189 1167 q 336 1190 292 1193 q 400 1178 371 1189 q 474 1125 444 1161 q 501 1072 493 1101 q 521 1026 515 1051 q 547 988 529 1013 q 594 925 565 963 q 622 890 604 911 l 636 872 q 650 854 644 861 q 664 838 658 844 q 686 807 676 821 q 981 1119 818 996 q 1008 1150 992 1138 q 1144 1213 1058 1190 q 1239 1224 1196 1225 q 1304 1210 1274 1221 q 1376 1158 1347 1193 q 1407 1043 1419 1107 q 1404 996 1410 1019 q 1378 795 1386 922 q 1376 538 1371 668 q 1403 282 1382 392 q 1438 154 1417 203 q 1465 92 1460 126 q 1463 3 1479 47 q 1404 -67 1446 -42 q 1382 -78 1393 -74 q 1367 -86 1375 -82 q 1265 -115 1322 -111 q 1170 -105 1217 -118 q 1089 -64 1124 -92 q 1026 -8 1050 -46 q 946 233 972 82 q 919 510 924 356 q 921 658 918 582 q 828 504 867 582 q 826 500 828 503 q 792 442 817 467 q 732 407 767 417 z "},"N":{"ha":1568,"x_min":11,"x_max":1465,"o":"m 514 1031 q 578 908 524 989 q 735 718 636 825 q 919 531 817 629 q 961 1008 915 811 q 964 1086 951 1047 q 1008 1150 976 1125 q 1144 1213 1058 1190 q 1239 1224 1196 1225 q 1304 1210 1274 1221 q 1376 1158 1347 1193 q 1407 1043 1419 1107 q 1404 996 1410 1019 q 1378 795 1386 922 q 1376 538 1371 668 q 1403 282 1382 392 q 1438 154 1417 203 q 1465 92 1460 126 q 1463 3 1479 47 q 1404 -67 1446 -42 q 1382 -78 1393 -74 q 1367 -86 1375 -82 q 1265 -115 1322 -111 q 1210 -114 1238 -117 q 1183 -115 1197 -115 q 858 0 1021 -108 q 601 233 729 85 q 486 381 543 301 q 501 274 492 324 q 550 117 521 164 q 569 35 572 78 q 539 -42 567 -8 q 458 -122 511 -93 q 356 -151 413 -147 q 261 -142 307 -154 q 164 -86 203 -125 q 147 -65 154 -76 q 125 -37 135 -53 q 42 213 71 53 q 11 507 17 343 q 14 802 4 657 q 44 1040 24 947 q 81 1106 54 1078 q 144 1143 107 1133 q 242 1179 189 1167 q 336 1190 292 1193 q 400 1178 371 1189 q 474 1125 444 1161 q 504 1061 497 1097 q 514 1031 511 1046 z "},"O":{"ha":1338,"x_min":18,"x_max":1213,"o":"m 703 1160 q 968 1083 850 1149 q 1122 959 1058 1035 q 1213 793 1185 883 q 1213 431 1269 606 q 1024 154 1160 269 q 722 2 893 43 q 383 1 551 -39 q 189 103 272 29 q 58 289 106 178 q 18 704 -21 478 q 204 1078 60 938 q 399 1193 289 1161 q 629 1200 508 1225 q 703 1160 672 1192 m 564 842 q 450 768 500 836 q 382 578 393 690 q 413 400 372 469 q 514 338 446 343 q 632 349 585 331 q 715 415 679 368 q 806 617 797 525 q 776 736 811 683 q 681 819 743 788 q 593 847 636 843 q 564 842 578 843 z "},"P":{"ha":1313,"x_min":17,"x_max":1214,"o":"m 560 632 q 682 592 626 600 q 772 599 736 583 q 832 685 828 621 q 792 775 838 747 q 714 792 763 793 q 576 761 654 792 q 560 632 567 700 m 17 -12 q 38 471 17 158 q 65 769 50 656 q 83 875 74 833 q 121 989 75 940 q 267 1115 197 1069 q 368 1169 318 1150 q 493 1194 431 1194 l 494 1194 l 496 1194 l 497 1194 q 501 1196 499 1196 q 515 1196 508 1196 q 579 1181 550 1196 q 651 1106 629 1157 q 653 1101 651 1104 q 758 1113 707 1111 q 1018 1047 906 1115 q 1172 878 1119 985 q 1214 649 1224 771 q 1135 429 1204 528 q 951 285 1065 331 q 542 293 772 211 q 547 88 542 175 q 550 75 549 83 q 554 53 553 58 q 544 -44 568 1 q 543 -49 543 -47 q 507 -96 531 -75 q 482 -124 496 -111 q 276 -197 386 -201 q 119 -146 196 -193 q 46 -97 75 -133 q 17 -12 17 -60 z "},"Q":{"ha":1338,"x_min":18,"x_max":1213,"o":"m 846 43 q 383 1 618 -56 q 189 103 272 29 q 58 289 106 178 q 18 704 -21 478 q 204 1078 60 938 q 399 1193 289 1161 q 629 1200 508 1225 q 703 1160 672 1192 q 968 1083 850 1149 q 1122 959 1058 1035 q 1213 793 1185 883 q 1213 431 1269 606 q 1076 204 1171 304 q 1146 124 1118 163 q 1172 19 1181 76 q 1116 -71 1163 -37 q 1013 -96 1069 -104 q 922 -40 956 -87 q 867 22 903 -14 q 846 43 861 26 m 564 842 q 450 768 500 836 q 382 578 393 690 q 413 400 372 469 q 514 338 446 343 q 601 340 564 333 q 556 424 578 381 q 547 530 529 475 q 615 611 564 585 q 715 622 664 635 q 794 563 767 608 q 806 617 803 592 q 776 736 811 683 q 681 819 743 788 q 593 847 636 843 q 564 842 578 843 z "},"R":{"ha":1317,"x_min":21,"x_max":1218,"o":"m 564 735 q 686 694 631 703 q 778 701 740 686 q 838 788 832 724 q 796 879 842 850 q 718 896 767 896 q 581 865 658 894 q 564 735 571 804 m 21 92 q 42 574 21 263 q 69 874 54 760 q 88 978 78 936 q 125 1092 79 1044 q 271 1219 201 1172 q 372 1274 322 1254 q 497 1299 436 1297 l 499 1299 l 500 1299 l 501 1299 q 506 1299 503 1299 q 519 1299 513 1299 q 583 1285 554 1299 q 656 1208 633 1260 q 657 1206 656 1207 q 763 1217 711 1215 q 1022 1151 910 1218 q 1177 981 1125 1089 q 1218 753 1229 874 q 1139 533 1208 631 q 956 389 1069 435 q 917 375 936 381 q 963 322 939 346 q 1071 232 1017 265 q 1174 178 1135 229 q 1210 42 1219 115 q 1156 -64 1201 -18 q 1039 -131 1110 -110 q 964 -132 1001 -142 q 810 -85 886 -128 q 638 63 722 -35 q 557 168 596 110 q 558 157 558 161 l 558 156 q 549 58 572 106 l 547 56 q 511 8 535 28 q 486 -19 500 -7 q 281 -93 390 -97 q 124 -43 200 -90 q 50 7 79 -31 q 21 92 21 44 z "},"S":{"ha":1040,"x_min":63,"x_max":943,"o":"m 511 719 q 565 694 529 710 q 582 687 567 693 q 614 674 597 681 q 639 663 631 667 q 739 613 697 638 q 838 531 799 575 q 913 235 943 410 q 883 129 903 179 q 814 15 856 58 q 486 -119 671 -129 q 210 -12 338 -112 q 63 197 90 83 q 88 356 40 288 q 231 433 135 424 q 336 390 294 439 q 340 386 338 388 q 407 329 369 365 q 415 320 408 326 q 422 313 422 314 q 435 300 431 306 q 442 294 439 297 q 451 301 447 297 q 479 335 467 317 q 485 347 483 342 l 485 349 q 475 356 481 351 q 371 408 451 374 q 367 410 369 408 q 283 447 311 433 q 196 504 231 474 q 113 749 81 601 q 244 982 139 876 q 467 1122 342 1081 q 732 1124 613 1172 q 914 924 863 1071 q 931 893 924 908 q 943 846 940 869 q 931 775 946 808 q 854 681 901 711 q 725 658 794 643 q 646 693 688 667 q 619 711 635 700 q 607 719 617 713 q 596 728 597 726 q 560 751 574 744 q 549 756 554 754 q 546 757 547 757 l 544 757 q 533 747 539 754 q 511 719 521 736 z "},"T":{"ha":1174,"x_min":-90,"x_max":1068,"o":"m 1039 1118 q 1068 919 1096 1017 q 1024 832 1056 874 q 964 771 1000 801 q 897 740 935 747 q 888 738 892 739 q 808 738 849 725 q 774 751 790 742 q 760 761 767 756 q 753 767 757 764 q 683 782 728 779 q 683 588 679 685 q 707 351 688 454 q 753 204 726 249 q 771 128 774 168 q 743 57 768 88 q 667 -18 717 10 q 572 -44 625 -42 q 394 17 463 -53 q 379 35 386 25 q 358 61 367 47 q 281 293 308 146 q 251 567 258 414 q 250 738 249 651 q 164 711 204 725 q 107 704 136 703 q -10 732 42 690 q -90 874 -75 783 q -81 1007 -101 940 q -6 1128 -58 1081 q 129 1181 53 1179 q 525 1244 303 1235 q 758 1238 654 1250 q 942 1186 875 1224 q 1039 1118 1007 1175 z "},"U":{"ha":1351,"x_min":-25,"x_max":1247,"o":"m 875 1143 q 1024 1160 942 1168 q 1076 1147 1053 1156 q 1143 1107 1115 1133 q 1153 1096 1149 1101 q 1158 1093 1156 1094 q 1176 1078 1168 1086 q 1189 1060 1183 1069 q 1206 1032 1199 1049 q 1221 993 1213 1017 q 1247 904 1243 935 q 1240 633 1263 792 q 1211 465 1225 531 q 1151 272 1186 356 q 1031 88 1103 160 q 811 -25 938 -3 q 396 22 588 -65 q 106 274 221 103 q -24 596 10 417 q -24 951 -58 775 q -22 1031 -35 990 q 24 1097 -10 1071 q 101 1139 49 1118 q 192 1169 147 1158 q 311 1179 260 1186 q 406 1139 367 1172 l 406 1138 q 453 1078 438 1115 q 461 1001 468 1042 q 440 940 458 968 q 425 708 407 835 q 522 461 447 563 q 660 367 586 374 q 722 375 690 364 q 782 543 769 450 q 788 674 790 599 q 776 828 786 719 q 764 1000 767 938 q 790 1086 763 1047 q 863 1138 818 1125 q 875 1143 869 1140 z "},"V":{"ha":1278,"x_min":-90,"x_max":1178,"o":"m 988 1158 q 1172 978 1121 1106 q 1178 892 1189 935 q 1133 821 1167 850 q 1017 603 1094 753 q 1013 594 1014 597 q 1008 588 1010 590 q 861 319 917 411 q 782 194 835 275 q 778 189 779 192 q 774 183 775 186 q 657 -11 689 57 q 556 -90 626 -78 q 483 -103 522 -107 q 411 -75 443 -100 q 240 143 329 -14 q 99 436 172 264 q -71 915 -17 708 q -90 983 -89 946 q -74 1053 -90 1021 q -11 1118 -53 1096 q 15 1139 3 1131 q 101 1181 58 1171 q 207 1178 151 1193 q 275 1153 228 1172 q 342 1097 318 1136 q 363 1013 365 1057 q 469 710 403 882 q 529 564 500 631 q 557 631 540 590 q 558 633 558 632 q 560 635 558 635 q 668 879 626 797 q 825 1119 739 1019 q 933 1168 867 1169 q 988 1158 961 1169 z "},"W":{"ha":1758,"x_min":44,"x_max":1663,"o":"m 1364 1114 q 1381 1117 1371 1115 q 1387 1119 1381 1118 q 1400 1122 1393 1121 q 1410 1125 1407 1124 q 1454 1132 1435 1131 q 1590 1083 1533 1136 q 1614 1060 1603 1074 q 1661 960 1661 1021 q 1663 956 1663 958 q 1650 893 1664 922 q 1644 879 1649 889 q 1639 863 1640 868 q 1635 854 1636 857 q 1629 843 1632 849 q 1625 835 1628 839 q 1621 828 1622 831 q 1475 517 1567 704 q 1231 60 1322 206 l 1231 58 q 1228 56 1229 57 q 1224 47 1226 51 q 1197 19 1211 32 q 1124 -15 1165 -8 q 1064 -11 1093 -19 q 1033 3 1047 -6 q 1007 24 1019 11 q 996 35 1001 28 q 989 43 992 38 q 889 183 938 103 q 840 274 865 224 q 835 263 838 268 q 832 254 833 258 q 754 89 776 132 q 717 21 733 46 q 693 -12 704 1 q 639 -56 669 -40 q 499 -42 565 -92 q 474 -18 485 -31 q 457 6 465 -8 q 435 44 447 21 q 404 99 415 79 q 217 489 290 328 q 44 890 115 707 q 46 994 24 943 q 119 1064 68 1044 q 126 1067 124 1065 q 196 1100 160 1088 q 238 1113 217 1108 q 265 1126 250 1121 q 368 1120 318 1144 q 436 1043 418 1096 q 449 1010 444 1026 q 511 856 481 917 q 567 729 540 796 q 631 835 603 794 q 672 888 653 868 q 707 917 689 906 q 740 933 724 928 q 796 942 768 943 q 869 918 835 940 q 906 890 888 907 q 953 838 928 871 q 1042 707 990 789 q 1072 657 1057 683 q 1243 1018 1175 864 q 1299 1081 1261 1058 q 1364 1114 1326 1107 z "},"X":{"ha":1408,"x_min":51,"x_max":1313,"o":"m 1204 1114 q 1210 1107 1206 1113 q 1217 1100 1215 1101 q 1229 1086 1224 1093 q 1256 1054 1244 1069 q 1313 881 1313 979 q 1308 849 1313 865 q 1256 763 1299 796 q 1243 744 1250 753 q 1178 699 1217 711 q 1165 693 1169 694 q 911 471 1054 601 q 1142 172 1026 306 q 1175 85 1174 135 q 1172 13 1182 49 q 1133 -49 1161 -22 q 1119 -61 1129 -51 q 1107 -72 1108 -71 q 1071 -101 1088 -90 q 996 -132 1036 -125 q 986 -137 990 -135 q 881 -141 933 -160 q 803 -71 828 -122 q 790 -44 794 -58 q 746 21 774 -14 q 663 119 719 57 l 656 126 q 644 141 650 133 q 635 151 638 149 q 610 179 621 167 q 425 -21 504 69 q 414 -39 421 -31 q 306 -92 372 -92 q 214 -60 254 -93 q 200 -56 211 -60 q 167 -43 181 -50 q 118 -12 139 -32 q 99 6 107 -4 q 51 114 50 49 q 63 187 47 153 q 108 243 78 221 q 244 411 154 308 q 351 529 292 465 q 274 642 301 603 q 239 689 261 660 q 233 696 236 692 l 231 699 l 229 701 q 163 793 185 758 q 103 915 122 854 q 100 988 92 951 q 132 1050 108 1024 q 174 1108 146 1085 q 178 1111 176 1110 q 185 1117 181 1114 q 188 1119 186 1118 q 190 1121 189 1121 q 194 1125 192 1124 q 217 1143 207 1136 q 306 1188 260 1176 q 436 1176 371 1203 q 497 1128 474 1161 q 532 1088 518 1111 q 668 850 603 960 q 807 981 742 921 q 999 1140 947 1111 q 1092 1158 1042 1167 q 1204 1114 1158 1163 z "},"Y":{"ha":1281,"x_min":-3,"x_max":1179,"o":"m 396 1114 q 403 1103 397 1111 q 414 1089 408 1096 l 419 1081 q 443 1046 433 1060 q 492 978 471 1007 q 614 819 558 885 q 825 1119 738 1017 q 904 1167 857 1157 q 990 1160 947 1176 q 1174 979 1122 1107 q 1179 893 1190 936 q 1135 822 1168 850 q 1017 603 1094 753 q 1013 594 1014 597 q 1008 588 1010 590 q 861 319 917 411 q 782 194 835 275 q 778 189 779 192 q 774 183 775 186 q 657 -11 689 57 q 564 -87 629 -72 q 458 -96 513 -112 q 299 15 358 -62 q 249 94 260 46 q 260 188 238 142 q 385 424 313 293 q 358 451 372 436 q 231 596 303 510 q 53 824 128 719 q -3 911 7 857 q -1 1000 -17 956 q 53 1071 14 1044 q 72 1082 63 1078 q 122 1128 97 1108 q 171 1158 147 1146 q 244 1181 207 1176 q 356 1153 306 1186 q 396 1114 379 1138 z "},"Z":{"ha":1297,"x_min":194,"x_max":1199,"o":"m 1199 210 q 1193 82 1203 132 q 1138 -51 1181 15 q 1081 -100 1115 -83 q 1010 -114 1047 -117 q 1000 -114 1004 -114 q 831 -128 925 -114 q 604 -169 749 -139 q 577 -176 599 -171 q 551 -181 556 -181 q 500 -182 525 -186 q 356 -144 418 -189 q 268 -26 294 -103 q 247 99 247 31 q 257 181 240 142 q 260 194 258 188 q 294 254 269 229 q 517 658 397 454 q 592 783 556 725 q 583 783 588 783 q 499 771 544 778 q 422 758 464 765 q 410 756 421 758 q 388 752 399 754 q 375 750 378 750 q 282 767 325 742 q 222 838 239 792 q 194 1014 168 921 q 228 1086 204 1050 q 260 1132 239 1104 q 360 1185 299 1181 q 606 1224 463 1221 q 899 1188 778 1228 q 933 1171 918 1182 q 990 1160 963 1171 q 1174 979 1122 1107 q 1179 893 1190 936 q 1135 822 1168 850 q 1017 603 1094 753 q 1013 594 1014 597 q 1008 588 1010 590 q 881 351 926 429 q 1064 339 976 356 q 1156 300 1117 338 q 1199 210 1194 263 z "},"[":{"ha":910,"x_min":68,"x_max":806,"o":"m 146 -178 q 83 57 103 -75 q 68 299 68 164 q 81 597 68 411 q 82 613 81 599 q 84 641 83 626 q 85 661 85 656 q 97 753 88 692 q 103 786 100 775 q 106 860 110 838 q 126 960 96 914 q 211 1018 157 1006 q 296 1047 249 1047 q 426 1056 346 1047 q 472 1060 442 1057 q 585 1072 547 1069 q 687 1039 643 1076 q 735 944 731 1001 q 701 844 739 888 q 607 794 664 800 q 504 785 574 792 q 483 782 492 783 q 454 374 451 549 q 504 10 456 165 q 631 32 578 14 q 736 24 685 50 q 806 -56 788 -1 q 798 -162 824 -111 q 718 -232 772 -214 q 511 -268 626 -262 q 393 -265 446 -272 q 325 -251 356 -261 q 222 -251 274 -272 q 146 -178 169 -229 z "},"\\":{"ha":585,"x_min":-67,"x_max":489,"o":"m 211 928 q 274 593 211 803 q 344 381 301 500 q 388 261 361 331 q 399 233 392 250 q 408 206 406 213 q 428 154 421 174 q 449 97 440 121 q 454 88 451 92 q 464 64 460 76 q 467 58 465 61 q 468 50 467 56 q 472 36 471 43 q 485 -21 476 18 q 489 -51 489 -36 q 458 -138 489 -100 q 381 -186 428 -176 q 350 -190 365 -190 q 276 -169 310 -190 q 225 -112 243 -149 q 222 -108 224 -111 q 206 -57 208 -85 q 203 -44 206 -53 q 168 57 192 -8 q 149 108 160 76 l 138 136 q 128 164 132 153 q 83 286 101 235 q 7 515 38 414 q -67 928 -67 763 q -26 1026 -67 985 q 73 1067 15 1067 q 171 1026 131 1067 q 211 928 211 985 z "},"]":{"ha":783,"x_min":-74,"x_max":686,"o":"m 76 43 q 185 42 124 39 q 183 107 183 74 q 189 301 185 181 q 190 331 190 311 q 197 582 197 499 q 181 803 196 704 q 86 799 132 803 q -15 831 29 793 q -63 925 -58 868 q -31 1026 -68 982 q 64 1075 7 1071 q 343 1078 168 1083 q 367 1076 351 1078 q 517 1074 467 1074 q 615 1033 575 1074 q 656 935 656 992 q 625 847 656 885 q 631 781 628 821 q 654 560 649 617 q 667 414 661 481 q 686 96 685 217 q 682 -32 688 19 q 674 -90 679 -65 q 642 -161 663 -132 q 603 -200 626 -185 q 576 -212 590 -207 q 550 -219 564 -217 q 522 -224 538 -222 q 485 -224 507 -224 q 458 -224 472 -224 q 451 -224 456 -224 l 449 -222 l 446 -222 l 443 -222 l 442 -222 q 300 -229 397 -222 q 282 -231 288 -231 q 56 -233 139 -240 q -40 -185 -3 -229 q -73 -85 -78 -142 q -24 10 -68 -28 q 76 43 19 47 z "},"^":{"ha":910,"x_min":64,"x_max":810,"o":"m 721 690 q 643 694 686 704 q 721 690 683 703 m 64 588 q 150 764 90 663 q 232 897 188 829 q 264 949 239 910 q 292 994 289 989 q 322 1035 308 1019 q 354 1063 338 1051 q 429 1088 389 1086 q 518 1064 478 1092 q 558 1026 542 1049 q 585 981 572 1008 l 600 946 q 618 906 610 924 q 701 756 643 854 q 753 676 733 704 q 756 671 754 674 q 810 589 799 640 q 791 485 822 533 q 704 424 760 436 q 589 447 643 410 q 558 474 574 457 q 525 517 543 490 q 463 614 500 553 q 424 682 444 644 q 389 624 406 653 q 326 496 343 546 q 255 417 307 442 q 149 410 203 392 q 69 481 94 429 q 64 588 44 533 z "},"_":{"ha":1033,"x_min":-150,"x_max":938,"o":"m -19 3 q 440 7 153 14 q 517 4 465 6 q 799 -1 706 -1 q 897 -42 856 -1 q 938 -140 938 -82 q 897 -238 938 -197 q 799 -279 856 -279 q 510 -274 701 -279 q 433 -271 458 -272 q -1 -275 158 -264 q -102 -241 -58 -279 q -149 -145 -146 -203 q -115 -44 -153 -87 q -19 3 -78 -1 z "},"`":{"ha":478,"x_min":-12,"x_max":376,"o":"m 163 1163 q 294 1076 238 1139 q 364 978 331 1038 q 376 872 392 928 q 310 789 360 817 q 204 776 260 761 q 121 843 149 792 q 90 888 104 874 q 78 897 83 896 q -3 967 24 915 q -12 1072 -29 1018 q 57 1153 6 1126 q 163 1163 108 1179 z "},"a":{"ha":1142,"x_min":-37,"x_max":1043,"o":"m 539 410 q 518 411 532 414 q 472 397 497 410 q 396 342 431 378 q 540 410 468 360 l 539 410 m -37 686 q -26 864 -57 776 q 78 1019 4 951 q 225 1113 140 1078 q 401 1154 310 1149 q 776 1029 614 1168 q 1013 579 954 878 q 1043 340 1036 453 q 1028 83 1051 196 q 1025 69 1026 76 q 1019 47 1022 58 q 956 -31 1003 -4 q 857 -46 910 -57 l 856 -46 q 842 -43 851 -44 q 794 -39 829 -42 q 742 -33 757 -35 q 688 -22 704 -29 q 614 32 640 -8 q 590 119 588 72 q 560 106 575 113 q 336 57 440 54 q 181 97 243 60 q 81 235 100 146 q 93 378 65 303 q 154 488 113 433 q 353 647 235 592 q 485 688 419 679 q 496 689 490 688 q 456 742 475 724 q 442 751 447 749 q 439 753 440 753 q 435 753 438 753 q 413 742 425 750 q 314 640 368 713 q 247 592 288 606 q 208 574 229 579 q 189 567 199 569 l 169 561 q 39 590 97 540 q -37 686 -22 619 z "},"b":{"ha":1114,"x_min":-36,"x_max":1015,"o":"m 375 325 q 392 324 383 325 q 524 314 474 304 q 547 321 539 317 q 553 325 551 324 q 557 339 557 329 q 549 388 560 360 q 517 438 538 417 q 472 467 496 460 q 431 467 453 474 q 375 435 404 458 q 375 403 375 414 q 375 367 375 392 q 375 325 375 342 m 106 1222 q 254 1214 185 1236 q 365 1138 325 1193 q 401 981 417 1071 q 383 932 397 954 q 379 817 381 876 q 622 864 501 872 q 803 813 721 858 q 942 689 886 767 q 1015 397 1035 558 q 1014 378 1015 388 q 831 39 988 169 q 519 -96 704 -65 q 218 -89 360 -124 q 90 -36 143 -71 q 65 -19 76 -28 q 0 31 25 -4 q -25 111 -25 67 q -31 438 -25 219 q -36 710 -36 618 q -32 986 -37 863 q -29 1049 -31 1018 q -19 1142 -40 1097 q 47 1207 3 1186 q 106 1222 75 1221 z "},"c":{"ha":1063,"x_min":97,"x_max":967,"o":"m 906 774 q 910 624 944 700 q 794 528 875 549 q 635 567 706 504 q 594 614 611 586 q 568 613 581 615 q 539 596 553 610 q 492 476 496 556 q 524 361 486 400 q 565 336 540 343 q 603 331 582 331 q 607 336 604 333 q 713 415 644 396 q 824 415 768 432 q 918 356 879 399 q 967 238 964 306 q 928 113 969 171 q 710 -31 867 25 q 510 -42 613 -64 q 461 -28 486 -36 q 290 38 371 -12 q 97 264 154 122 q 103 596 33 426 q 201 758 143 693 q 344 867 258 824 q 836 858 586 990 q 906 774 889 831 z "},"d":{"ha":1165,"x_min":63,"x_max":1063,"o":"m 767 1221 q 917 1213 847 1235 q 1028 1136 988 1192 q 1063 979 1078 1068 q 1044 931 1058 953 q 1038 504 1039 750 q 1038 297 1038 426 q 1060 253 1053 276 q 1022 61 1090 147 q 938 -8 994 8 q 858 -40 901 -26 q 506 -53 699 -89 q 160 122 281 -12 q 63 322 82 210 q 88 563 44 435 q 199 760 125 675 q 407 892 288 858 q 574 900 493 915 q 626 886 600 894 q 629 985 628 936 q 633 1047 631 1017 q 644 1140 622 1096 q 710 1204 665 1183 q 767 1221 736 1219 m 606 432 q 540 488 572 472 q 504 496 521 497 q 442 450 467 492 q 433 375 418 410 q 467 339 443 356 q 571 297 506 311 q 607 293 594 292 q 614 296 611 294 q 635 318 624 301 q 632 407 633 356 q 606 432 617 417 z "},"e":{"ha":1065,"x_min":93,"x_max":968,"o":"m 613 654 q 454 663 517 689 q 401 618 425 650 q 390 600 396 610 q 414 601 403 600 q 547 626 485 606 q 613 654 586 639 m 632 -47 q 590 -57 611 -54 q 314 15 444 -81 q 138 247 199 100 q 93 557 78 394 q 174 778 106 679 q 347 919 243 876 q 613 943 469 969 q 836 858 715 922 q 906 775 889 831 q 931 694 931 739 q 825 467 931 563 q 633 363 751 400 q 410 322 526 328 q 449 267 426 290 q 453 264 451 265 q 572 228 508 231 l 574 228 q 649 351 582 307 q 740 383 688 378 q 903 340 835 393 q 968 213 967 290 q 951 136 969 172 q 917 85 939 108 q 710 -31 857 21 q 632 -47 674 -43 z "},"f":{"ha":981,"x_min":-71,"x_max":883,"o":"m 40 39 q 41 60 40 43 q 42 78 42 76 q 43 121 42 103 q 49 219 46 175 q 60 350 53 289 q -33 393 4 353 q -71 488 -71 433 q -30 586 -71 546 q 68 626 11 626 q 110 624 89 626 q 189 821 142 736 q 319 978 243 918 q 522 1064 408 1049 q 601 1068 564 1069 q 696 1047 653 1065 q 788 972 753 1022 q 839 908 818 944 q 883 754 881 840 q 868 631 886 688 q 833 565 856 592 q 808 540 822 551 q 758 517 786 524 q 683 516 721 506 q 619 553 646 526 q 576 618 592 581 q 546 515 561 575 q 565 508 556 513 q 583 503 572 506 l 597 497 q 615 492 611 493 q 695 422 669 474 q 703 317 721 371 q 633 237 685 263 q 526 229 582 211 q 501 238 524 229 q 494 146 497 192 q 489 26 490 79 q 489 -8 489 6 q 485 -83 497 -46 q 446 -144 474 -118 q 381 -178 418 -169 q 282 -187 333 -194 q 171 -144 225 -179 q 100 -81 131 -118 q 40 39 36 -37 z "},"g":{"ha":993,"x_min":42,"x_max":894,"o":"m 529 406 q 524 450 526 428 q 485 629 511 560 q 463 629 472 631 q 438 615 449 626 q 400 521 404 583 q 426 428 396 460 q 458 408 439 414 q 529 406 488 400 m 290 93 q 353 29 328 44 q 411 14 374 15 q 475 47 450 14 q 507 119 493 75 q 464 114 486 115 q 240 171 347 104 q 86 350 132 238 q 90 615 35 481 q 283 832 153 765 q 549 871 414 899 q 631 879 588 888 q 789 778 724 861 q 861 629 835 718 q 894 285 906 481 q 825 -50 885 90 q 767 -154 800 -110 q 686 -233 736 -201 q 494 -292 606 -286 q 306 -267 397 -299 q 138 -157 199 -231 q 129 -146 133 -151 q 69 -75 101 -117 q 42 28 35 -29 q 96 119 50 85 q 199 147 142 154 q 290 93 256 139 z "},"h":{"ha":1104,"x_min":-36,"x_max":1008,"o":"m 576 540 q 557 539 568 540 q 428 436 507 531 q 411 418 421 428 q 406 411 410 415 q 400 403 403 407 l 396 399 q 375 378 386 386 q 375 256 375 335 q 375 127 375 176 q 344 39 375 78 q 331 25 338 32 q 267 -25 299 -8 q 156 -43 213 -53 q 106 -28 129 -39 q 13 15 51 -25 q -25 111 -25 56 q -31 438 -25 219 q -36 710 -36 618 q -32 986 -37 863 q -29 1049 -31 1018 q -19 1142 -40 1097 q 47 1207 3 1186 q 106 1222 75 1221 q 254 1214 185 1236 q 365 1138 325 1193 q 401 981 417 1071 q 383 932 397 954 q 381 871 382 901 q 488 925 435 904 q 700 954 600 969 q 908 818 831 932 q 1008 478 1003 679 q 1006 372 1010 429 q 997 275 1003 339 q 993 235 994 249 q 986 140 988 163 l 988 140 l 988 139 l 988 138 l 988 136 q 989 126 988 131 q 989 101 989 114 q 985 78 988 89 q 968 39 979 57 q 936 3 956 18 q 915 -22 926 -11 q 846 -62 886 -50 q 746 -72 801 -78 q 646 -51 694 -68 q 574 -14 606 -43 q 535 58 543 15 q 535 193 525 111 q 557 322 539 228 q 567 385 564 360 q 579 493 578 451 q 576 540 579 522 z "},"i":{"ha":650,"x_min":74,"x_max":551,"o":"m 350 801 q 346 800 347 800 q 342 797 343 797 q 329 793 335 794 q 296 785 314 786 q 193 815 239 779 q 183 822 188 819 q 146 861 161 838 q 124 935 125 894 q 143 1007 124 975 q 169 1039 154 1025 q 188 1054 178 1047 q 211 1065 199 1061 q 251 1078 229 1074 q 271 1081 261 1081 q 285 1082 278 1082 q 321 1078 304 1082 q 374 1051 350 1069 q 410 1008 396 1033 q 424 982 418 996 q 424 876 446 929 q 350 801 403 824 m 146 718 q 296 763 215 765 q 357 751 328 761 q 368 751 363 751 q 463 703 425 747 q 496 603 500 660 q 492 396 486 468 q 529 236 497 294 q 540 210 536 224 q 551 124 560 169 q 482 13 538 56 q 394 -29 446 -17 q 264 -31 332 -44 q 168 39 200 -18 q 135 90 149 60 q 107 161 118 121 q 86 290 93 217 q 83 331 85 310 q 74 444 75 382 q 82 578 74 499 q 83 593 82 582 q 97 663 81 629 q 146 718 113 697 z "},"j":{"ha":1022,"x_min":42,"x_max":918,"o":"m 578 815 q 574 814 575 814 q 569 811 571 813 q 557 807 563 808 q 524 799 542 801 q 421 831 467 793 q 411 836 415 833 q 374 875 389 853 q 352 949 353 910 q 371 1021 351 989 q 397 1053 382 1039 q 415 1068 406 1061 q 439 1081 426 1075 q 479 1093 457 1089 q 499 1096 489 1094 q 513 1096 506 1096 q 549 1092 532 1096 q 601 1065 578 1085 q 638 1024 624 1049 q 651 997 646 1011 q 652 891 674 944 q 578 815 631 838 m 482 729 l 492 735 q 506 742 503 740 q 549 763 529 754 q 586 775 568 771 q 678 789 629 799 q 832 693 769 771 q 903 549 879 636 q 918 231 940 411 q 828 -76 896 53 q 731 -201 786 -154 q 693 -229 713 -217 q 686 -233 689 -232 q 494 -292 606 -286 q 306 -267 397 -299 q 138 -157 199 -231 q 129 -146 133 -151 q 69 -75 101 -117 q 42 28 35 -29 q 96 119 50 85 q 199 147 142 154 q 290 93 256 139 q 353 29 328 44 q 411 14 374 15 q 449 19 436 14 q 463 32 457 24 q 489 154 488 68 q 467 360 492 244 q 413 543 444 461 q 424 668 386 608 q 482 729 443 708 z "},"k":{"ha":1042,"x_min":-36,"x_max":944,"o":"m 703 879 q 797 799 736 858 q 835 760 822 775 q 844 750 840 754 q 863 722 856 736 q 874 693 869 708 q 878 664 878 679 q 869 611 879 636 q 829 553 857 576 q 765 522 801 529 q 736 519 751 519 q 711 504 724 511 q 631 458 669 486 q 632 457 632 458 q 808 311 699 386 q 899 276 860 311 q 944 181 942 239 q 910 81 947 124 q 903 72 906 76 l 901 72 q 897 67 899 67 q 888 56 892 60 q 854 32 872 40 q 822 19 839 24 q 742 -10 788 -10 q 657 15 696 -11 q 543 92 619 42 q 375 207 429 165 q 375 128 375 165 q 344 39 375 78 q 331 25 338 32 q 267 -25 299 -8 q 156 -43 213 -53 q 106 -28 129 -39 q 13 15 51 -25 q -25 111 -25 56 q -31 438 -25 219 q -36 710 -36 618 q -32 986 -37 863 q -29 1049 -31 1018 q -19 1142 -40 1097 q 47 1207 3 1186 q 106 1222 75 1221 q 254 1214 185 1236 q 365 1138 325 1193 q 401 981 417 1071 q 383 932 397 954 q 378 753 379 846 q 464 813 432 792 q 514 844 490 829 q 601 899 546 889 q 703 879 656 910 z "},"l":{"ha":629,"x_min":92,"x_max":531,"o":"m 235 1218 q 383 1210 314 1232 q 494 1133 454 1189 q 531 976 544 1065 q 513 928 525 950 q 504 503 506 747 q 504 251 504 418 q 504 123 504 172 q 472 35 504 74 q 460 21 467 28 q 396 -29 428 -12 q 283 -47 342 -57 q 235 -32 258 -43 q 142 11 181 -29 q 104 107 104 51 q 99 433 104 215 q 92 706 93 614 q 97 982 90 858 q 100 1044 99 1014 q 110 1138 89 1093 q 176 1201 132 1182 q 235 1218 204 1217 z "},"m":{"ha":1531,"x_min":-56,"x_max":1433,"o":"m 49 981 q 236 981 146 1008 q 333 922 294 963 q 426 968 381 950 q 639 996 540 1013 q 822 894 749 979 q 913 940 868 922 q 1125 968 1025 983 q 1333 832 1256 947 q 1433 492 1428 693 q 1431 386 1435 444 q 1422 289 1429 353 q 1419 249 1421 263 q 1413 154 1413 176 l 1413 153 l 1413 151 q 1414 140 1414 144 q 1414 116 1415 128 q 1410 93 1413 104 q 1410 86 1410 90 q 1361 -3 1399 33 q 1292 -44 1332 -31 q 1190 -54 1247 -58 q 1058 -18 1111 -47 q 997 49 1015 4 q 989 139 978 93 q 994 213 990 169 q 1017 340 1000 246 q 1028 403 1024 379 q 1039 511 1038 469 q 1036 560 1039 540 q 1017 557 1028 558 q 947 518 985 553 q 946 415 949 471 q 938 318 943 382 q 933 278 935 290 q 926 183 926 206 l 926 182 l 928 181 l 928 179 q 928 169 928 174 q 928 144 929 157 q 925 121 928 132 q 908 82 919 100 q 857 33 889 51 q 831 0 846 15 q 761 -42 801 -28 q 661 -51 717 -56 q 581 -36 622 -47 q 487 -8 529 -40 q 435 75 444 24 q 435 211 424 128 q 456 339 439 244 q 467 401 463 378 q 479 510 478 468 q 476 558 479 539 q 457 556 468 557 q 374 504 421 550 q 374 468 374 486 q 374 331 374 431 q 375 128 375 213 q 344 39 375 78 q 331 25 338 32 q 267 -25 299 -8 q 183 -46 226 -46 q 156 -43 169 -46 q 106 -28 129 -39 q 13 15 51 -25 q -25 111 -25 56 q -39 396 -25 240 q -40 413 -39 399 l -42 426 q -44 458 -44 444 q -56 625 -54 551 q -49 822 -57 717 q -31 919 -58 874 q 49 981 -3 965 z "},"n":{"ha":1044,"x_min":-56,"x_max":947,"o":"m 49 981 q 236 981 146 1008 q 333 922 294 963 q 426 968 381 950 q 639 996 540 1013 q 847 861 771 975 q 947 521 942 722 q 946 415 949 472 q 938 318 943 382 q 933 278 935 290 q 926 183 926 206 l 926 182 l 928 181 l 928 179 q 928 169 928 174 q 928 144 929 157 q 925 121 928 132 q 908 82 919 100 q 857 33 889 51 q 831 0 846 15 q 761 -42 801 -28 q 661 -51 717 -56 q 581 -36 622 -47 q 487 -8 529 -40 q 435 75 444 24 q 435 211 424 128 q 456 339 439 244 q 467 401 463 378 q 479 510 478 468 q 476 558 479 539 q 457 556 468 557 q 374 504 421 550 q 374 468 374 486 q 374 331 374 431 q 375 128 375 213 q 344 39 375 78 q 331 25 338 32 q 267 -25 299 -8 q 183 -46 226 -46 q 156 -43 169 -46 q 106 -28 129 -39 q 13 15 51 -25 q -25 111 -25 56 q -39 396 -25 240 q -40 413 -39 399 l -42 426 q -44 458 -44 444 q -56 625 -54 551 q -49 822 -57 717 q -31 919 -58 874 q 49 981 -3 965 z "},"o":{"ha":1146,"x_min":19,"x_max":1028,"o":"m 674 922 q 870 842 786 903 q 1000 689 954 782 q 1028 324 1083 524 q 821 15 975 129 q 417 -74 643 -118 q 205 13 296 -50 q 63 171 114 75 q 19 546 -26 338 q 201 864 64 740 q 374 964 279 935 q 569 974 469 993 q 649 929 617 965 l 650 929 q 664 925 656 926 l 669 924 l 674 922 m 549 533 q 478 486 510 515 q 433 418 436 447 q 435 411 433 414 q 461 385 440 399 q 538 378 497 360 q 615 457 589 401 q 625 496 625 479 q 624 508 625 504 q 619 511 622 510 q 604 521 614 517 q 549 533 582 529 z "},"p":{"ha":1265,"x_min":92,"x_max":1163,"o":"m 506 383 q 626 376 581 368 q 650 385 642 379 q 657 389 654 386 q 661 403 660 392 q 651 450 663 424 q 619 501 640 479 q 575 529 599 522 q 533 529 556 536 q 507 518 521 526 q 506 383 506 454 m 1054 228 q 976 147 1021 183 q 665 11 850 43 q 504 0 585 -3 q 504 -126 504 -76 q 472 -214 504 -176 q 460 -229 467 -222 q 396 -278 428 -261 q 283 -296 342 -306 q 235 -281 258 -292 q 142 -237 181 -278 q 104 -143 104 -197 q 99 183 104 -35 q 92 456 93 365 q 97 733 90 610 q 100 796 99 765 q 110 888 89 843 q 176 953 132 932 q 235 969 204 967 q 383 961 314 982 q 494 885 454 939 q 503 872 499 879 q 774 933 639 942 q 954 881 871 928 q 1092 758 1038 835 q 1162 590 1146 682 q 1153 407 1178 499 q 1054 228 1126 308 z "},"q":{"ha":1194,"x_min":44,"x_max":1094,"o":"m 761 1038 q 947 1038 858 1065 q 1060 961 1019 1017 q 1094 804 1110 894 q 1092 790 1093 797 q 1068 -82 1068 249 q 1054 -193 1086 -140 q 968 -281 1019 -250 q 856 -310 917 -311 q 760 -287 808 -308 q 689 -247 725 -272 q 633 -167 646 -217 q 643 -74 621 -118 q 642 6 643 -36 q 486 19 564 6 q 140 196 261 60 q 45 396 64 283 q 68 636 26 508 q 181 832 106 749 q 389 965 269 932 q 554 974 474 989 q 664 935 607 963 q 698 999 672 971 q 761 1038 724 1026 m 618 525 q 553 581 585 565 q 517 589 533 590 q 454 543 479 585 q 447 468 431 503 q 481 432 456 449 q 583 390 518 404 q 619 386 607 385 q 626 389 624 388 q 626 408 626 399 q 624 519 624 467 q 618 525 621 522 z "},"r":{"ha":1008,"x_min":-56,"x_max":913,"o":"m 49 981 q 236 981 146 1008 q 347 904 307 960 q 378 842 368 876 q 650 893 517 906 q 769 861 717 888 q 874 768 836 828 q 913 624 914 704 q 908 581 911 603 q 878 424 918 503 q 808 343 851 372 q 727 314 771 318 q 640 331 683 310 q 551 419 581 358 q 529 482 539 444 q 471 439 507 468 q 451 423 469 439 q 426 403 432 407 q 375 365 396 379 l 374 365 q 374 331 374 353 q 375 128 375 213 q 344 39 375 78 q 331 25 338 32 q 267 -25 299 -8 q 183 -46 226 -46 q 156 -43 169 -46 q 106 -28 129 -39 q 13 15 51 -25 q -25 111 -25 56 q -39 396 -25 240 q -40 413 -39 399 l -42 426 q -44 458 -44 444 q -56 625 -54 551 q -49 822 -57 717 q -31 919 -58 874 q 49 981 -3 965 z "},"s":{"ha":942,"x_min":-40,"x_max":843,"o":"m 236 247 q 251 207 235 224 q 274 190 261 199 q 314 189 292 186 q 406 238 369 197 q 422 264 419 251 q 424 268 424 267 l 424 269 q 421 274 422 271 q 408 288 417 281 q 322 335 379 314 q 303 344 311 339 q 214 378 246 363 q 115 447 151 407 q 58 597 57 511 q 106 743 60 667 q 254 883 157 828 q 463 949 351 939 q 490 951 476 951 q 524 950 507 953 q 704 893 626 944 q 843 669 819 817 q 782 514 858 575 q 681 484 738 478 q 588 536 624 490 q 560 653 546 588 q 551 661 557 658 q 494 672 532 674 q 463 658 476 668 q 442 635 447 647 q 442 625 440 628 q 447 615 443 621 q 471 596 456 606 q 504 567 490 583 q 553 546 529 557 q 664 464 619 511 q 726 140 782 336 q 540 -72 683 -7 q 288 -103 424 -125 q 164 -65 222 -93 q 49 11 99 -39 q 19 53 29 29 q -40 275 -53 151 q 10 369 -35 333 q 112 400 54 406 q 206 350 169 394 q 236 247 242 306 z "},"t":{"ha":928,"x_min":4,"x_max":832,"o":"m 704 581 q 626 572 669 578 q 617 571 621 571 q 617 500 617 538 q 615 250 615 417 q 617 122 617 171 q 585 33 617 72 q 572 19 579 26 q 507 -31 539 -14 q 396 -49 453 -58 q 347 -33 371 -44 q 254 10 292 -31 q 217 106 217 50 q 210 432 217 214 q 207 531 208 492 q 157 522 183 525 q 56 551 100 515 q 5 645 11 588 q 35 747 -1 703 q 128 799 71 792 q 147 801 139 799 q 179 810 163 807 q 204 815 192 814 q 208 981 204 903 q 211 1043 210 1013 q 222 1136 200 1092 q 288 1200 244 1181 q 346 1217 315 1215 q 494 1208 425 1231 q 607 1132 567 1188 q 642 975 657 1064 q 624 926 638 949 q 621 851 622 889 q 682 857 653 854 q 783 824 739 861 q 831 730 826 788 q 799 628 836 672 q 704 581 761 585 z "},"u":{"ha":1131,"x_min":25,"x_max":1031,"o":"m 938 -35 q 751 -42 842 -65 q 651 15 692 -25 q 560 -35 606 -14 q 347 -69 449 -82 q 135 60 217 -51 q 25 397 38 196 q 26 599 21 467 q 26 617 26 606 q 29 776 31 731 q 29 783 29 779 q 29 790 29 786 q 29 799 29 793 q 32 817 31 804 q 35 826 33 821 q 40 843 38 833 q 47 856 43 849 q 58 874 51 864 q 68 883 65 881 q 96 925 78 906 q 161 969 122 954 q 261 985 206 988 q 393 954 339 982 q 453 897 433 935 q 469 817 474 858 q 472 692 479 768 q 456 564 469 657 q 446 499 449 524 q 438 390 438 432 q 442 342 438 360 q 461 344 450 342 q 586 450 510 354 q 597 464 592 456 q 597 468 597 465 q 593 594 597 489 q 588 719 589 699 q 585 808 586 765 q 614 897 583 858 q 626 913 619 906 q 689 963 657 946 q 776 986 731 986 q 800 985 789 986 q 850 971 825 982 q 943 931 904 969 q 983 836 982 892 q 1007 561 988 708 q 1015 490 1011 519 q 1031 324 1026 397 q 1031 126 1035 232 q 1015 28 1042 75 q 938 -35 989 -18 z "},"v":{"ha":1058,"x_min":-72,"x_max":960,"o":"m -65 731 q -72 813 -81 771 q -31 883 -62 854 q 36 922 -3 913 q 63 933 50 929 q 114 947 89 943 q 200 939 160 953 q 278 879 249 921 q 329 808 315 853 q 433 528 361 699 q 474 601 449 557 q 483 621 481 615 q 563 776 540 722 q 607 860 569 826 q 696 894 644 893 q 746 894 728 896 q 819 882 786 893 q 910 824 874 865 q 960 722 947 782 q 917 593 975 646 q 801 339 879 489 q 747 236 778 293 q 684 122 739 221 q 617 -1 629 22 q 590 -46 608 -26 q 589 -49 590 -47 q 586 -51 588 -50 q 582 -57 583 -54 q 568 -71 575 -65 q 539 -93 554 -83 q 489 -112 515 -107 q 443 -115 467 -117 q 415 -110 429 -114 q 400 -106 410 -108 l 394 -104 q 392 -103 393 -104 q 290 -49 329 -99 q 86 347 214 54 q -53 706 -11 569 q -65 731 -60 717 z "},"w":{"ha":1472,"x_min":7,"x_max":1374,"o":"m 576 776 q 668 819 619 808 q 750 821 711 829 q 842 774 803 811 q 878 683 879 736 q 881 653 882 668 q 917 553 897 604 q 949 611 929 575 q 958 626 956 622 q 1026 764 1007 715 q 1066 836 1033 807 q 1143 867 1099 865 q 1188 867 1171 867 q 1250 856 1222 865 q 1331 804 1299 840 q 1374 717 1363 768 q 1336 603 1386 650 q 1236 382 1303 513 q 1188 292 1215 340 q 1133 192 1181 278 q 1074 85 1085 106 q 1051 46 1067 63 q 1050 43 1051 44 l 1049 42 q 1044 36 1046 39 q 1032 24 1038 29 q 963 -12 1001 -6 q 922 -14 943 -17 q 899 -10 911 -14 q 886 -7 893 -8 q 881 -6 885 -7 q 878 -4 879 -4 q 790 44 824 0 q 692 219 746 103 q 661 165 681 200 q 627 102 642 129 q 607 64 613 75 q 583 24 599 42 l 582 22 q 581 19 581 21 q 576 15 578 17 q 564 3 571 8 q 496 -33 535 -26 q 456 -36 476 -37 q 432 -32 444 -35 q 418 -28 426 -31 l 413 -26 q 411 -25 411 -26 q 322 22 356 -22 q 143 368 256 113 q 24 679 58 561 q 13 701 17 690 q 7 774 -1 738 q 42 835 15 810 q 101 869 67 861 q 124 879 113 875 q 168 890 147 888 q 243 883 208 896 q 311 832 285 868 q 356 769 343 808 q 447 524 385 674 q 476 574 454 538 q 528 669 511 633 q 576 776 522 736 z "},"x":{"ha":1143,"x_min":115,"x_max":1047,"o":"m 946 921 q 948 917 946 919 q 953 914 950 915 l 954 913 q 964 904 961 907 q 985 883 976 893 q 1047 750 1039 828 q 1046 725 1047 738 q 1013 654 1043 683 q 1006 640 1010 647 q 958 600 988 613 q 950 594 951 596 q 772 403 871 515 q 972 193 872 288 q 1006 128 1000 167 q 983 22 1025 69 q 978 16 982 21 q 970 8 974 11 q 967 3 967 4 q 944 -21 954 -11 q 885 -53 918 -43 q 878 -57 881 -56 q 797 -69 840 -79 q 732 -21 754 -58 q 719 -1 725 -11 q 611 113 692 40 q 593 129 607 115 l 592 129 q 572 147 581 140 q 564 154 568 151 q 439 -14 492 63 q 431 -28 435 -21 q 351 -76 403 -71 q 278 -60 311 -82 q 269 -58 276 -60 q 243 -51 254 -56 q 203 -33 221 -44 q 185 -18 193 -26 q 140 61 144 11 q 174 164 126 122 q 264 304 204 218 q 338 404 297 350 q 268 483 293 456 q 236 519 258 497 l 229 526 q 171 590 190 567 q 115 679 135 635 q 128 786 92 736 q 156 833 135 814 q 157 835 156 835 l 161 839 q 172 850 167 844 q 179 858 176 856 q 243 903 211 889 q 350 907 294 924 q 401 875 381 899 q 432 846 419 864 q 554 675 496 754 q 650 788 606 736 q 785 925 749 899 q 856 946 817 949 q 946 921 907 954 z "},"y":{"ha":993,"x_min":42,"x_max":894,"o":"m 290 93 q 353 29 328 44 q 411 14 374 15 q 475 47 450 14 q 519 168 504 89 q 382 175 454 160 q 231 238 300 193 q 125 344 161 283 q 51 733 24 514 q 64 803 46 771 q 95 854 72 833 q 147 881 118 875 q 151 883 149 882 q 213 906 181 900 q 272 915 242 918 q 345 876 317 910 q 371 799 374 843 q 367 765 372 782 q 397 539 353 600 q 432 510 407 524 q 479 494 457 497 q 496 494 489 493 l 497 494 q 497 497 497 496 q 494 558 503 515 q 490 582 493 567 q 481 632 483 615 q 479 649 479 640 q 474 694 472 671 q 468 769 460 731 q 526 858 478 825 q 631 879 574 890 q 789 778 724 861 q 861 629 835 718 q 894 285 906 481 q 825 -50 885 90 q 767 -154 800 -110 q 686 -233 736 -201 q 494 -292 606 -286 q 306 -267 397 -299 q 138 -157 199 -231 q 129 -146 133 -151 q 69 -75 101 -117 q 42 28 35 -29 q 96 119 50 85 q 199 147 142 154 q 290 93 256 139 z "},"z":{"ha":917,"x_min":72,"x_max":818,"o":"m 818 239 q 814 143 822 182 q 771 40 804 92 q 717 -8 750 8 q 647 -22 683 -24 q 640 -22 644 -22 q 539 -31 596 -22 q 396 -57 488 -37 q 378 -61 392 -58 q 361 -65 364 -64 q 315 -67 339 -69 q 196 -33 249 -71 q 121 67 144 3 q 106 161 106 110 q 114 232 100 197 q 115 239 114 235 q 143 293 124 269 q 282 544 208 418 q 276 543 279 543 q 267 542 275 543 q 253 539 260 540 q 244 538 246 538 q 155 553 197 529 q 94 619 113 576 q 72 769 50 690 q 100 829 81 800 q 124 863 108 843 q 217 915 160 908 q 385 942 289 939 q 592 915 504 944 q 613 907 603 913 q 653 897 633 904 q 799 753 758 854 q 806 671 815 711 q 767 601 797 631 q 694 468 743 560 q 693 463 694 465 l 690 458 q 646 374 663 406 q 688 368 667 372 q 778 328 740 365 q 818 239 815 292 z "},"{":{"ha":690,"x_min":-81,"x_max":593,"o":"m 415 810 q 386 813 396 814 q 374 806 382 811 q 342 776 351 789 q 350 757 344 769 q 363 732 353 750 q 404 639 392 675 q 413 494 426 565 q 368 400 401 443 q 375 379 371 390 q 386 239 396 314 q 363 140 381 201 q 350 97 353 108 q 440 145 385 139 q 539 118 494 151 q 593 26 585 83 q 567 -76 601 -31 q 559 -86 565 -78 q 551 -97 553 -94 q 496 -156 524 -133 q 393 -201 451 -192 q 269 -190 332 -214 q 185 -143 225 -175 q 69 63 76 -60 q 78 154 67 106 q 96 221 83 178 q 97 226 97 224 q 90 225 94 225 q -15 244 33 213 q -81 347 -71 282 q -76 404 -83 376 q -61 440 -71 424 q -33 476 -50 460 q -11 494 -24 486 q 60 533 26 522 q 99 542 79 539 l 122 556 q 136 564 132 561 q 117 603 131 575 q 100 636 106 625 q 71 713 79 678 q 65 822 57 768 q 204 1026 85 935 q 343 1086 268 1075 q 476 1081 404 1097 q 564 1019 533 1068 q 582 915 594 971 q 520 828 569 858 q 415 810 471 797 z "},"|":{"ha":746,"x_min":315,"x_max":649,"o":"m 590 910 q 593 397 568 742 q 643 -19 615 82 q 649 -57 649 -37 q 621 -140 649 -103 q 549 -190 593 -178 q 510 -196 529 -196 q 426 -168 464 -196 q 376 -96 389 -140 q 358 -32 360 -35 q 357 -29 358 -31 q 357 -25 357 -28 q 354 -8 356 -24 l 354 -7 l 354 -1 l 353 6 l 354 15 q 315 378 331 165 q 315 946 289 750 q 368 1038 322 1003 q 471 1065 414 1072 q 563 1012 528 1057 q 590 910 599 967 z "},"}":{"ha":790,"x_min":-3,"x_max":692,"o":"m 194 21 q 224 19 215 17 q 238 26 229 19 q 269 57 260 44 q 260 78 267 65 q 246 103 256 85 q 203 196 215 158 q 192 344 178 271 q 236 442 201 397 q 228 463 231 451 q 214 607 204 529 q 236 707 218 644 q 247 753 246 740 q 156 701 213 708 q 54 726 100 694 q -3 819 7 761 q 22 925 -12 878 q 29 935 22 926 q 38 947 36 944 q 92 1007 64 985 q 197 1057 138 1044 q 325 1049 260 1069 q 413 1001 371 1033 q 533 794 524 919 q 528 699 538 750 q 510 631 522 675 q 508 625 508 628 q 515 626 511 626 q 625 608 574 640 q 692 504 682 571 q 689 446 697 475 q 675 408 685 426 q 647 371 664 389 q 625 353 638 361 q 553 311 588 322 q 514 303 533 306 l 490 288 q 476 279 479 281 q 496 239 481 267 q 513 210 507 218 q 544 132 535 167 q 554 19 561 75 q 414 -196 538 -99 q 275 -261 350 -247 q 138 -257 211 -272 q 47 -197 79 -246 q 27 -90 15 -147 q 88 1 39 -32 q 194 21 136 33 z "},"~":{"ha":1014,"x_min":6,"x_max":914,"o":"m 6 415 q 185 636 43 558 q 425 661 303 701 q 513 621 468 649 q 576 576 539 604 q 626 540 617 546 q 658 586 642 557 q 743 651 688 636 q 849 636 799 665 q 913 551 899 607 q 899 446 928 496 q 718 271 818 310 q 597 257 660 247 q 503 290 550 265 q 451 324 479 304 q 429 339 442 331 q 423 344 428 340 q 414 350 418 347 l 410 354 q 340 397 361 390 q 333 399 336 399 q 318 393 328 399 q 286 369 296 381 q 275 344 279 360 q 210 260 260 289 q 106 245 161 231 q 21 310 50 260 q 6 415 -8 360 z "},"":{"ha":644,"x_min":74,"x_max":539,"o":"m 414 846 q 432 835 424 840 q 529 729 500 793 q 539 585 561 660 q 483 489 524 531 q 388 425 442 447 q 272 408 331 403 q 146 465 199 415 q 76 590 94 514 q 74 738 63 656 q 128 904 85 818 q 204 1033 156 961 q 294 1091 238 1081 q 398 1069 350 1101 q 456 980 446 1036 q 433 876 467 924 q 414 846 422 860 z "},"":{"ha":646,"x_min":24,"x_max":549,"o":"m 135 603 q 89 639 110 618 q 24 793 25 701 q 52 913 24 854 q 131 1018 81 972 q 240 1083 182 1065 q 400 1076 324 1111 q 517 951 479 1040 q 549 779 546 881 q 519 632 550 703 q 450 519 496 575 q 369 436 417 479 q 293 374 342 413 q 191 344 249 338 q 98 395 133 350 q 69 497 63 440 q 119 590 75 554 q 135 603 128 597 z "},"":{"ha":988,"x_min":56,"x_max":888,"o":"m 815 846 q 888 729 872 801 q 881 624 897 676 q 825 533 865 571 q 744 489 788 500 q 643 492 693 474 q 571 538 603 506 q 532 593 549 561 q 497 706 506 644 q 497 692 497 699 q 460 585 494 638 q 394 514 433 546 q 306 465 351 481 q 175 467 236 443 q 71 576 100 494 q 56 718 49 635 q 118 907 65 818 q 256 1057 171 996 q 347 1078 297 1086 q 427 1028 397 1069 q 449 936 457 986 q 399 857 440 886 q 396 854 397 856 q 429 835 414 846 q 496 728 485 794 q 508 826 493 783 q 575 952 538 901 q 674 1046 613 1003 q 765 1067 715 1076 q 845 1017 815 1058 q 866 926 875 976 q 817 846 857 875 l 815 846 z "},"":{"ha":1158,"x_min":39,"x_max":1057,"o":"m 153 581 l 156 583 l 157 585 q 161 589 160 588 q 226 656 207 632 q 153 671 185 658 q 76 722 107 688 q 39 803 46 756 q 46 881 33 842 q 74 938 54 910 q 153 1015 104 982 q 263 1060 206 1051 q 407 1032 343 1072 q 500 899 475 989 q 511 724 521 826 q 453 551 503 632 q 392 472 428 511 q 332 411 371 447 q 326 407 329 410 q 325 404 326 406 q 322 403 324 403 q 235 369 286 368 q 149 406 183 369 q 115 494 114 443 q 153 581 117 546 m 671 543 q 689 560 679 551 q 706 575 696 567 l 714 582 q 722 589 719 586 q 732 599 728 593 q 596 669 647 614 q 543 774 554 714 q 553 892 532 835 q 610 984 571 943 q 700 1044 649 1025 q 944 1011 824 1092 q 1026 918 997 976 q 1057 815 1050 872 q 1049 644 1068 736 q 976 497 1032 567 q 883 404 944 457 q 875 397 881 401 q 867 389 869 390 q 851 376 858 382 q 838 363 844 369 q 749 330 800 328 q 664 369 699 332 q 631 458 629 407 q 671 543 633 508 z "},"":{"ha":1389,"x_min":0,"x_max":0,"o":""},"":{"ha":417,"x_min":0,"x_max":0,"o":""}}}
